<?xml version="1.0" encoding="UTF-8"?> <svg xmlns="http://www.w3.org/2000/svg" width="65" height="60" viewBox="0 0 65 60" fill="none"><path d="M35.6578 46.683C34.1038 50.7745 31.3686 53.865 27.9703 56.39C26.7696 57.2698 25.4963 58.0458 24.1641 58.7098C22.6935 59.4543 21.0664 59.8371 19.4181 59.8262C17.7698 59.8153 16.1479 59.4111 14.6873 58.6472C6.73204 54.4556 2.05247 48.1044 1.83225 38.8403C1.80415 37.5978 1.5873 36.3667 1.18912 35.1893C-0.457487 30.2895 -0.412443 25.4573 1.43937 20.6275C1.62666 20.0409 1.73192 19.4312 1.75217 18.8158C1.93986 16.6236 1.82725 14.3639 2.32273 12.2468C4.36473 3.48578 13.874 -1.90699 22.5225 0.62799C25.5254 1.50385 27.7976 3.23804 29.1214 6.23347L30.2175 5.62788C37.9901 1.34869 45.8253 1.26361 53.3676 5.92066C60.91 10.5777 64.4259 17.6371 64.013 26.4933C63.7803 31.5182 61.8409 35.9525 58.5277 39.7562C58.0597 40.2968 57.5692 41.1601 56.7084 40.4394C55.8476 39.7187 56.6033 39.1156 57.0863 38.5601C67.1661 26.9487 61.5907 8.95363 46.7111 5.02729C35.5752 2.10944 23.9163 9.28145 21.5215 20.5349C19.0591 32.0762 26.5839 43.3072 38.0777 45.2441C43.4513 46.145 48.4278 45.1098 53.0073 42.1386C53.285 41.9559 53.5678 41.6656 53.8581 41.6506C54.0484 41.6356 54.2398 41.6587 54.4211 41.7184C54.6024 41.7781 54.77 41.8733 54.9141 41.9984C55.0818 42.1911 55.0368 42.7492 54.8741 42.9994C54.6689 43.3297 54.266 43.5549 53.9182 43.7777C48.3152 47.3712 42.2718 48.2971 35.6578 46.683ZM2.82572 34.1558C3.06244 33.7442 3.32489 33.3481 3.61149 32.9696C5.07292 31.328 6.52684 29.6814 8.03832 28.0873C8.52379 27.5868 9.22698 27.0863 9.83758 27.9197C10.3831 28.6704 9.75249 29.1183 9.20446 29.5362C7.00532 31.212 5.26205 33.413 4.1345 35.9375C3.94335 36.3047 3.81881 36.7029 3.76664 37.1136C3.08097 47.211 9.10436 54.2729 16.6342 57.3835C17.9055 57.909 19.5946 58.1342 20.8884 57.7738C27.0544 56.0672 31.1484 51.9081 33.9011 46.1825C25.0024 42.3488 20.0576 35.7398 19.0891 26.1629C18.7421 26.1287 18.3926 26.1287 18.0456 26.1629C16.4616 26.4908 14.8925 26.9137 13.291 27.1639C13.2213 27.1752 13.1504 27.1752 13.0807 27.1639C12.9214 27.1357 12.772 27.0668 12.647 26.9639C12.5221 26.8611 12.4257 26.7277 12.3674 26.5768C12.309 26.4258 12.2906 26.2624 12.3138 26.1022C12.3371 25.942 12.4013 25.7906 12.5002 25.6625C12.5508 25.5924 12.6078 25.527 12.6703 25.4673C12.9456 25.217 13.4211 25.1344 13.8315 25.0494C15.5682 24.6815 17.3124 24.3412 18.949 24.0108L20.478 16.6361C18.0181 16.516 15.5557 16.6036 13.2809 17.8899C12.6754 18.2327 12.0673 18.4204 11.6644 17.6922C11.2615 16.964 11.792 16.4409 12.3951 16.2483C14.2919 15.6752 16.2363 14.7468 18.1332 14.8219C20.7357 14.912 22.3623 14.2038 23.4759 11.8314C24.0114 10.6928 25.0675 9.79695 26.0709 8.57826C18.0631 8.22041 11.2364 10.2049 6.15898 16.3684C1.8773 21.5559 0.911351 27.5043 2.82572 34.1558ZM27.2971 6.86158C26.604 5.02228 25.2752 3.78357 23.5009 3.00281C20.9985 1.87171 18.3659 1.75159 15.6658 2.16699C8.78905 3.25306 3.57395 9.31648 3.66404 16.3534C9.73998 8.58076 17.7378 5.86561 27.2971 6.86158Z" fill="#395D64"></path><path d="M59.1862 24.9494C59.1946 28.4266 58.1716 31.8282 56.2466 34.724C54.3216 37.6198 51.581 39.8797 48.3715 41.2178C45.1621 42.5559 41.6278 42.9122 38.2159 42.2415C34.8039 41.5708 31.6675 39.9034 29.2033 37.45C26.7391 34.9966 25.0578 31.8676 24.3721 28.4586C23.6864 25.0497 24.027 21.5139 25.3509 18.2986C26.6749 15.0832 28.9226 12.3327 31.8099 10.395C34.6971 8.45718 38.0942 7.41918 41.5715 7.41224C43.8806 7.40335 46.1688 7.85032 48.3049 8.72754C50.441 9.60476 52.3829 10.895 54.0193 12.5242C55.6558 14.1534 56.9545 16.0896 57.8412 18.2218C58.7278 20.354 59.1849 22.6402 59.1862 24.9494ZM25.9036 25.4073C28.1934 25.4073 30.2729 25.3598 32.3474 25.4248C32.9324 25.4679 33.5184 25.3554 34.0458 25.0987C34.5732 24.8421 35.0233 24.4504 35.3504 23.9634C36.0077 22.9985 36.7144 22.068 37.4674 21.1757C39.7196 18.6983 43.128 18.6732 45.3927 21.1482C46.1785 22.004 46.7515 23.055 47.5423 23.9009C48.0853 24.4864 48.811 25.2472 49.4967 25.2922C52.0592 25.4574 54.6392 25.3573 57.3319 25.3573C57.2343 19.4966 54.9345 14.8795 50.0748 11.8065C44.5694 8.33314 38.8338 8.30311 33.3084 11.7139C28.3585 14.7644 25.9862 19.3939 25.9137 25.4073H25.9036ZM56.989 27.2516C54.6893 27.2516 52.4846 27.2041 50.28 27.2666C48.5283 27.3167 47.217 26.631 46.191 25.2872C45.5078 24.3938 44.8947 23.4429 44.1615 22.5921C42.5699 20.7503 40.3728 20.7278 38.7612 22.5395C38.1181 23.3054 37.5182 24.1066 36.9645 24.9394C35.8208 26.561 34.3319 27.3717 32.2899 27.2742C30.2479 27.1766 28.2334 27.2516 26.2014 27.2516C26.5268 34.4962 34.0466 40.8349 41.9668 40.6923C49.5117 40.5571 56.949 33.9782 56.999 27.2516H56.989Z" fill="#395D64"></path><path d="M19.4394 48.5044C19.5224 48.4933 19.6066 48.4933 19.6896 48.5044C20.6906 48.6445 21.6566 48.7121 22.5674 48.9673C22.6737 49.0011 22.7666 49.0677 22.8327 49.1575C22.9234 49.2665 22.9887 49.3943 23.024 49.5316C23.0592 49.6689 23.0634 49.8124 23.0363 49.9516C23.0093 50.0907 22.9516 50.2222 22.8675 50.3363C22.7833 50.4504 22.6749 50.5444 22.5499 50.6114C22.4573 50.6644 22.3537 50.6953 22.2471 50.7015C20.3953 50.7766 18.536 50.7791 16.6842 50.7015C16.6135 50.6979 16.544 50.6818 16.479 50.654C16.3327 50.5911 16.2044 50.4926 16.1059 50.3674C16.0074 50.2422 15.9419 50.0944 15.9153 49.9373C15.8886 49.7803 15.9018 49.6191 15.9535 49.4685C16.0052 49.3178 16.0938 49.1825 16.2112 49.0749C16.27 49.0195 16.3412 48.9792 16.4189 48.9573C17.4159 48.7469 18.4245 48.5957 19.4394 48.5044Z" fill="#395D64"></path><path d="M14.4352 37.3194C13.7238 37.8106 12.8785 38.0709 12.014 38.0651C11.1495 38.0593 10.3077 37.7876 9.603 37.2868L9.53043 37.2343C9.30271 37.0691 9.24265 36.3034 9.42783 36.0506C9.61301 35.7979 10.3537 35.6703 10.594 35.8429C11.595 36.5636 12.4483 36.5787 13.4493 35.8554C13.6995 35.6778 14.5403 35.8304 14.6104 36.0181C14.7505 36.3935 14.7105 37.1242 14.4552 37.3069L14.4352 37.3194Z" fill="#395D64"></path><path d="M9.28769 42.3611C9.45457 42.4312 9.59664 42.5496 9.6956 42.7011C9.79456 42.8526 9.84587 43.0303 9.8429 43.2113C9.83994 43.3922 9.78285 43.5682 9.67898 43.7164C9.57512 43.8646 9.42924 43.9783 9.26017 44.0428C9.20084 44.0645 9.13815 44.0755 9.07498 44.0753C8.77719 44.0753 8.21915 43.5173 8.25668 43.2795C8.31424 42.9117 8.74466 42.3937 9.07999 42.3386C9.15 42.328 9.22159 42.3357 9.28769 42.3611Z" fill="#395D64"></path><path d="M17.1642 43.4276C17.0879 43.5887 16.9649 43.7231 16.8111 43.8134C16.6574 43.9036 16.4801 43.9455 16.3022 43.9336C16.1243 43.9218 15.9541 43.8567 15.8138 43.7468C15.6734 43.6369 15.5693 43.4873 15.5151 43.3175C15.4979 43.2582 15.4903 43.1965 15.4926 43.1348C15.5126 42.8295 16.0957 42.2739 16.3009 42.329C16.6712 42.4241 17.1567 42.867 17.1992 43.2099C17.2062 43.2842 17.1942 43.3591 17.1642 43.4276Z" fill="#395D64"></path><path d="M16.3917 30.1112C16.5348 30.1892 16.6539 30.3047 16.7363 30.4453C16.8186 30.5859 16.861 30.7463 16.859 30.9093C16.8569 31.0722 16.8104 31.2315 16.7246 31.37C16.6387 31.5085 16.5167 31.6209 16.3717 31.6953C16.2884 31.7393 16.1956 31.7625 16.1014 31.7628C15.8011 31.7628 15.2431 31.2123 15.2806 30.9821C15.3382 30.6142 15.7611 30.0937 16.0939 30.0411C16.1982 30.0314 16.3027 30.056 16.3917 30.1112Z" fill="#395D64"></path><path d="M23.6607 43.3976C23.802 43.4753 23.9202 43.589 24.0035 43.7271C24.0867 43.8652 24.1321 44.0229 24.1348 44.1841C24.1376 44.3454 24.0978 44.5045 24.0194 44.6454C23.941 44.7863 23.8267 44.904 23.6882 44.9866C23.615 45.0368 23.5262 45.059 23.438 45.0492C23.23 44.9758 23.0423 44.8544 22.8901 44.6948C22.7379 44.5352 22.6255 44.342 22.5621 44.1308C22.5171 43.9006 23.0851 43.3125 23.3779 43.3125C23.4776 43.3181 23.5745 43.3472 23.6607 43.3976Z" fill="#395D64"></path><path d="M11.5241 47.564C11.6571 47.6388 11.7689 47.7464 11.8489 47.8764C11.9289 48.0064 11.9744 48.1547 11.9812 48.3072C11.9879 48.4597 11.9557 48.6115 11.8875 48.7481C11.8194 48.8847 11.7176 49.0017 11.5916 49.088C11.5148 49.1506 11.418 49.1835 11.3189 49.1806C11.2544 49.1701 11.192 49.1499 11.1337 49.1205C10.9942 49.0479 10.8763 48.9397 10.792 48.8069C10.7076 48.6741 10.6599 48.5213 10.6536 48.3641C10.6472 48.207 10.6825 48.0509 10.7558 47.9117C10.8291 47.7725 10.9379 47.6552 11.0711 47.5715C11.1268 47.5395 11.1866 47.5151 11.2488 47.4989C11.3454 47.4875 11.4428 47.5106 11.5241 47.564Z" fill="#395D64"></path><path d="M45.1298 28.1377C45.1298 30.7903 43.1278 32.7872 40.9857 32.2918C39.3091 31.9039 38.1079 30.2422 38.0604 28.2478C38.0153 26.2909 39.1714 24.4691 40.748 24.0087C43.0002 23.353 45.1323 25.36 45.1298 28.1377ZM43.278 28.1527C43.278 26.954 42.5272 25.8129 41.6714 25.7654C40.8155 25.7178 40.0123 26.7664 39.9822 28.0376C39.9472 29.3839 40.6804 30.4675 41.6188 30.4625C42.5097 30.4575 43.2679 29.4039 43.278 28.1527Z" fill="#395D64"></path><path d="M42.1819 17.0567V14.4742C42.1626 14.3219 42.0884 14.1818 41.9732 14.0804C41.858 13.9789 41.7098 13.9229 41.5563 13.9229C41.4028 13.9229 41.2545 13.9789 41.1393 14.0804C41.0242 14.1818 40.95 14.3219 40.9307 14.4742V17.0567C40.95 17.209 41.0242 17.349 41.1393 17.4505C41.2545 17.552 41.4028 17.608 41.5563 17.608C41.7098 17.608 41.858 17.552 41.9732 17.4505C42.0884 17.349 42.1626 17.209 42.1819 17.0567Z" fill="#395D64"></path><path d="M46.0283 18.5979L47.7124 16.9062L47.9627 16.656C48.0159 16.6032 48.0571 16.5396 48.0836 16.4696C48.1101 16.3995 48.1212 16.3246 48.1162 16.2498C48.1112 16.1751 48.0903 16.1023 48.0547 16.0364C48.0192 15.9704 47.9699 15.9129 47.9101 15.8677C47.7806 15.771 47.6213 15.7228 47.4598 15.7315C47.2984 15.7402 47.1452 15.8052 47.0268 15.9152L45.3426 17.6044L45.1049 17.8421C45.0517 17.8949 45.0105 17.9584 44.984 18.0285C44.9575 18.0986 44.9464 18.1735 44.9514 18.2482C44.9563 18.323 44.9773 18.3958 45.0129 18.4617C45.0484 18.5276 45.0977 18.5852 45.1574 18.6304C45.2871 18.7265 45.4461 18.7745 45.6072 18.7663C45.7684 18.7581 45.9216 18.6941 46.0408 18.5853L46.0283 18.5979Z" fill="#395D64"></path><path d="M37.5097 18.5979L35.8255 16.9062L35.5878 16.656C35.5346 16.6032 35.4934 16.5396 35.4669 16.4696C35.4404 16.3995 35.4293 16.3246 35.4343 16.2498C35.4392 16.1751 35.4602 16.1023 35.4958 16.0364C35.5313 15.9704 35.5806 15.9129 35.6404 15.8677C35.7699 15.771 35.9292 15.7228 36.0906 15.7315C36.2521 15.7402 36.4053 15.8052 36.5237 15.9152L38.2079 17.6044L38.4456 17.8421C38.4988 17.8949 38.54 17.9584 38.5665 18.0285C38.593 18.0986 38.6041 18.1735 38.5991 18.2482C38.5942 18.323 38.5732 18.3958 38.5376 18.4617C38.5021 18.5276 38.4528 18.5852 38.393 18.6304C38.2634 18.7265 38.1044 18.7745 37.9433 18.7663C37.7821 18.7581 37.6289 18.6941 37.5097 18.5853V18.5979Z" fill="#395D64"></path></svg> 