<?xml version="1.0" encoding="UTF-8"?> <svg xmlns="http://www.w3.org/2000/svg" width="64" height="60" viewBox="0 0 64 60" fill="none"><path d="M15.8116 30.141C16.0153 30.3093 16.177 30.5227 16.2841 30.7643C16.3911 31.0059 16.4406 31.2691 16.4284 31.5331C16.4163 31.7971 16.343 32.0546 16.2142 32.2854C16.0855 32.5162 15.9049 32.7139 15.6866 32.8629C15.5906 32.9293 15.4864 32.9831 15.3766 33.0228C13.7495 33.6052 12.7672 34.645 12.1499 36.2421C11.9449 36.7745 11.1501 37.4369 10.6502 37.4044C10.0778 37.3669 9.29049 36.7445 9.05554 36.1846C8.78721 35.4656 8.3683 34.8121 7.82688 34.2681C7.28546 33.7241 6.63403 33.3021 5.91623 33.0303C5.34635 32.8029 4.6665 32.0056 4.6665 31.4657C4.6665 30.9258 5.35385 30.1435 5.91623 29.9035C6.6328 29.6277 7.28307 29.2038 7.82448 28.6593C8.36589 28.1149 8.78625 27.4623 9.05804 26.7442C9.29049 26.1793 10.0728 25.5445 10.6427 25.4945C11.1426 25.4595 11.9474 26.1268 12.1424 26.6617C12.7597 28.3189 13.8295 29.3336 15.4716 29.941C15.5953 29.9882 15.7102 30.0558 15.8116 30.141ZM10.6152 34.53L13.672 31.4707L10.6302 28.3789L7.53587 31.4632L10.6152 34.53Z" fill="#395D64"></path><path d="M10.3925 17.0787C10.2198 16.9374 10.0829 16.7573 9.99314 16.553C9.90335 16.3488 9.86315 16.1261 9.87582 15.9034C9.88849 15.6806 9.95368 15.464 10.0661 15.2712C10.1784 15.0784 10.3348 14.915 10.5225 14.7942C10.6139 14.7308 10.7141 14.6811 10.8199 14.6467C12.3546 14.1718 13.2419 13.2071 13.7642 11.7099C13.9267 11.2475 14.6091 10.6826 15.0515 10.6826C15.4939 10.6826 16.2012 11.2425 16.3512 11.7024C16.8511 13.2196 17.7584 14.1494 19.278 14.6517C19.7529 14.8092 20.3428 15.4766 20.3553 15.9265C20.3678 16.3764 19.8079 17.1087 19.3555 17.2512C17.7759 17.7511 16.8561 18.7109 16.3337 20.2655C16.207 20.5255 16.0204 20.7517 15.7892 20.9255C15.558 21.0993 15.2889 21.2158 15.004 21.2653C14.6091 21.2928 13.9267 20.7279 13.7892 20.293C13.2893 18.6759 12.2896 17.7036 10.6649 17.2237C10.5666 17.1911 10.4745 17.1421 10.3925 17.0787ZM13.4193 15.9615L15.2789 18.056L14.7315 17.806L16.6536 15.9465C16.2487 15.544 15.4989 14.8017 14.999 14.3018L13.4193 15.9615Z" fill="#395D64"></path><path d="M45.0154 37.1165C42.8909 37.8514 40.5723 37.7937 38.4869 36.954H38.4544C38.34 36.8904 38.2516 36.7886 38.2044 36.6666C38.1355 36.5332 38.099 36.3854 38.0977 36.2353C38.0964 36.0851 38.1305 35.9368 38.1972 35.8022C38.2638 35.6677 38.3612 35.5507 38.4815 35.4607C38.6017 35.3708 38.7414 35.3104 38.8893 35.2844C38.9655 35.2704 39.0441 35.2773 39.1167 35.3044C40.0157 35.6906 40.9834 35.8913 41.9618 35.8943C42.9402 35.8973 43.9092 35.7026 44.8105 35.3219C44.9546 35.2817 45.1085 35.2959 45.2429 35.3619C45.3729 35.4101 45.4909 35.486 45.5887 35.5843C45.6865 35.6826 45.7617 35.801 45.8093 35.9312C45.8568 36.0615 45.8755 36.2005 45.864 36.3387C45.8525 36.4769 45.8112 36.6109 45.7428 36.7316C45.6952 36.8255 45.6178 36.9011 45.5228 36.9465C45.3504 36.9915 45.1829 37.059 45.0154 37.1165Z" fill="#395D64"></path><path d="M60.4368 51.6537C58.2522 50.5839 55.8853 49.879 53.5758 49.0817C52.291 48.6393 50.4489 48.7243 49.7891 47.8595C49.1292 46.9947 49.5092 45.2226 49.5966 43.8604C49.6413 43.2334 49.907 42.6426 50.3465 42.1932C52.8009 39.9862 54.7605 37.4443 56.0252 34.3824C56.2338 33.9399 56.5469 33.5548 56.9375 33.2602C58.8321 31.7605 60.1868 29.8809 60.7367 27.539C62.1714 21.2903 61.3066 15.3916 58.3997 9.82035C58.3798 9.73968 58.3505 9.66166 58.3122 9.5879C57.552 8.21982 56.6196 6.95479 55.5378 5.82372C55.2404 5.4988 54.938 5.17637 54.6255 4.86144C54.5106 4.61149 54.1881 4.40654 53.9457 4.20158L53.9207 4.18159L53.8582 4.1216C53.8148 4.08248 53.7679 4.04735 53.7182 4.01662C47.2422 -1.3222 36.532 -1.38469 30.1534 4.1041C23.8723 9.51041 22.1677 16.7263 22.6551 24.6446C22.835 27.6439 23.7298 30.5058 26.1368 32.4079C27.9439 33.8376 28.3388 35.9246 29.666 37.6992C27.544 38.4491 26.1068 40.8535 23.5374 39.3664C23.3777 39.3036 23.2016 39.2966 23.0375 39.3464C22.1027 39.5363 21.1604 39.7038 20.2406 39.9562C19.5257 40.1512 18.9909 40.2312 18.351 39.5863C17.9561 39.1914 16.8788 38.9614 16.4389 39.2189C14.6293 40.2836 12.7122 41.3434 11.2826 42.8331C10.3528 43.8029 9.51295 44.8002 8.44818 45.5475C8.377 45.5674 8.30949 45.5986 8.24822 45.64C8.08076 45.7574 7.9158 45.8699 7.74833 45.9774C7.50665 46.1081 7.25609 46.2217 6.9985 46.3173C6.92027 46.3496 6.8521 46.4023 6.80104 46.4698C6.7696 46.5092 6.74119 46.551 6.71606 46.5948C5.85026 47.0763 4.94154 47.4763 4.00166 47.7895C3.70422 47.887 3.40429 47.982 3.09936 48.0644C3.05049 48.0569 3.00076 48.0569 2.95189 48.0644C2.7198 48.1142 2.49107 48.1785 2.26704 48.2569C2.18456 48.2719 2.10207 48.2894 2.01709 48.3019C1.8609 48.3298 1.71844 48.409 1.61218 48.5268C-0.0599504 49.3941 -0.447365 51.0263 0.524921 52.6034C1.42472 54.0506 2.22455 55.5628 3.09686 57.0275C4.16412 58.8171 5.71378 59.1295 7.39341 57.8898C9.07304 56.6501 10.6727 55.3103 12.3923 54.1581C13.2971 53.5532 14.3919 52.9409 15.4316 52.8834C18.0686 52.7334 20.2206 51.5337 22.2951 50.134C22.8175 49.7841 23.4074 48.7818 23.2499 48.3244C22.81 47.0397 23.6148 46.5048 24.2897 45.8249C25.3145 44.7877 26.4467 43.8254 26.2893 42.1257C26.2693 41.9283 26.5392 41.6259 26.7517 41.4934C28.0289 40.7236 29.3286 39.9937 30.6758 39.2164C31.1107 39.6888 31.4256 40.2162 31.9005 40.5161C34.2525 42.0158 34.6049 44.2003 34.4 46.7647C34.31 47.842 34.07 48.3519 32.9778 48.4494C32.2821 48.517 31.5981 48.6749 30.9432 48.9193C28.3288 49.8715 25.6494 50.6989 23.1474 51.8986C21.2879 52.7909 20.1481 54.5005 19.9881 56.675C19.9531 57.0582 19.999 57.4445 20.1226 57.8089C20.2463 58.1732 20.4451 58.5076 20.7061 58.7903C20.9672 59.073 21.2846 59.2978 21.638 59.4501C21.9914 59.6024 22.3728 59.6788 22.7575 59.6744H55.4903C57.6149 59.6744 59.7394 59.6969 61.8639 59.6619C63.3361 59.6369 63.976 58.942 63.9985 57.4974C64.051 54.7955 62.7512 52.7859 60.4368 51.6537ZM16.059 50.7988C14.3094 51.1513 12.6648 51.5337 11.2351 52.6309C9.61542 53.8807 7.98578 55.0929 6.36114 56.3351C5.6338 56.895 5.11141 56.81 4.65651 55.9827C4.08164 54.9204 3.45428 53.8882 2.84941 52.8434C1.84963 51.1213 1.80214 51.0163 3.17184 49.9815C3.64673 49.869 4.11913 49.7316 4.57903 49.5716C6.01272 49.0925 7.38191 48.4386 8.65563 47.6245C9.95535 47.0872 11.1201 46.2998 11.8649 45.0626C13.1147 42.9981 15.0942 42.0158 17.1663 40.9135L21.6928 48.7518C19.6807 49.5091 17.9236 50.4239 16.059 50.7988ZM23.9573 43.4355C23.4574 44.1603 22.7075 44.7352 21.9852 45.47L19.9681 41.9708C20.9379 41.7208 21.7703 41.3909 22.6226 41.3309C23.1425 41.2909 23.8948 41.5184 24.1697 41.8958C24.3972 42.2157 24.2472 43.0405 23.9573 43.4355ZM26.6117 30.0559L26.2943 30.1059C25.7744 28.7762 25.082 27.4815 24.7946 26.1068C24.0448 22.5001 24.3672 18.8884 25.2745 15.3416C28.5388 2.60443 42.4932 -2.20451 52.8359 5.74874C53.2958 6.18615 53.7357 6.64355 54.1631 7.11094C54.3956 7.36089 54.6255 7.62583 54.848 7.88827C54.968 8.02824 55.0829 8.16821 55.1979 8.31068L55.3979 8.56062L55.4229 8.59312L55.4454 8.62311C55.7428 9.01802 56.0252 9.42543 56.2877 9.84534C58.8946 14.2269 59.7569 19.0233 59.4695 24.0572C59.3445 26.2117 58.8371 28.2888 57.24 30.2808C57.24 29.641 57.2649 29.2811 57.24 28.9386C56.99 25.9568 57.0075 22.925 56.4476 20.0031C55.3329 14.1969 52.3535 9.78535 46.1449 8.52063C44.225 8.1477 42.2642 8.03087 40.3137 8.17321C34.8149 8.54063 30.7508 11.1975 28.6887 16.4064C27.8996 18.4607 27.351 20.5995 27.0541 22.78C26.7042 25.1745 26.7467 27.6289 26.6117 30.0559ZM54.9405 22.6975C46.4691 20.6167 37.6207 20.6098 29.1461 22.6775C28.3338 16.5314 33.8951 10.5752 40.9085 9.98031C48.9518 9.30046 54.6805 14.4143 54.9405 22.6975ZM28.7187 25.2445C28.7412 24.9945 29.2186 24.6546 29.5535 24.5646C31.5806 24.0072 36.8019 22.84 41.9008 22.875C47.0547 22.9125 52.0936 24.1547 54.1056 24.4771C54.5306 24.5446 55.1404 24.957 55.2229 25.3119C55.3829 26.0168 55.4478 26.7041 54.6705 27.3965C52.271 29.5335 49.4392 29.2486 46.6398 29.0511C46.0724 29.0111 45.3626 28.2763 45.0651 27.6864C44.3828 26.3417 43.4805 25.4094 41.9283 25.4369C40.4286 25.4544 39.4764 26.3067 38.929 27.6864C38.5141 28.7362 37.7417 29.2286 36.5945 29.1686C35.8074 29.0911 35.0146 29.0911 34.2275 29.1686C32.0455 29.4935 30.4783 28.2588 28.9612 27.0591C28.6137 26.7791 28.6662 25.8593 28.7187 25.2445ZM32.7653 38.6165L32.8278 38.3466C32.8816 38.1164 32.8874 37.8776 32.8448 37.6451C32.8023 37.4125 32.7123 37.1913 32.5805 36.995C32.4488 36.7988 32.278 36.6317 32.0789 36.5043C31.8798 36.3769 31.6565 36.2919 31.4231 36.2545C29.9834 35.1298 28.7387 31.7555 28.7587 29.506C28.8312 29.481 28.9412 29.416 28.9737 29.4435C31.4581 31.5581 34.445 31.1232 37.3268 31.0082C38.854 30.9482 39.8663 29.9584 40.5936 28.6137C40.8736 28.0988 41.5184 27.384 41.9183 27.429C42.4482 27.489 43.0681 28.1213 43.358 28.6637C44.1878 30.2159 45.4076 31.0282 47.1472 31.0632C48.3519 31.0882 49.5941 31.2456 50.7589 31.0232C52.2586 30.7358 53.7107 30.1284 55.3254 29.616C55.1579 30.4033 55.0379 31.3106 54.7655 32.1704C53.1134 37.4343 49.7366 41.181 44.7127 43.433C43.313 44.0603 41.8733 44.2828 40.3412 43.8454C37.6643 43.088 34.2225 40.6811 32.7653 38.624V38.6165ZM62.0089 57.7623H21.8327C21.7178 55.5328 22.775 54.0381 24.5146 53.2133C26.5267 52.261 28.6787 51.5937 30.8008 50.8938C31.9405 50.5164 33.1478 50.3514 34.315 50.0565C35.7272 49.6991 36.2346 49.0317 36.2471 47.5571C36.2596 46.4773 36.2471 45.395 36.2471 44.0578C40.0487 46.4473 43.7829 46.5573 47.717 43.9928C47.717 45.3425 47.717 46.4323 47.717 47.5221C47.7295 49.0792 48.2169 49.6791 49.7166 50.0765C52.2036 50.7389 54.7305 51.2912 57.155 52.136C58.4897 52.6009 59.7369 53.4533 60.8592 54.3406C61.8714 55.1554 62.2639 56.3676 62.0064 57.7698L62.0089 57.7623Z" fill="#395D64"></path></svg> 