<?xml version="1.0" standalone="no"?>
<!DOCTYPE svg PUBLIC "-//W3C//DTD SVG 1.1//EN" "http://www.w3.org/Graphics/SVG/1.1/DTD/svg11.dtd" >
<svg xmlns="http://www.w3.org/2000/svg">
<metadata>Generated by IcoMoon</metadata>
<defs>
<font id="icomoon" horiz-adv-x="1024">
<font-face units-per-em="1024" ascent="960" descent="-64" />
<missing-glyph horiz-adv-x="1024" />
<glyph unicode="&#x20;" horiz-adv-x="512" d="" />
<glyph unicode="&#xe900;" glyph-name="header-email" d="M511.362 797.68c141.967 0 283.893 0 425.791 0 58.613 0 86.733-28.312 86.761-87.416 0.114-174.833 0.114-349.656 0-524.469 0-58.436-29.121-87.478-87.353-87.478-283.085-0.057-566.173-0.057-849.273 0-58.901 0-87.175 28.149-87.205 86.898-0.111 175.556-0.111 351.134 0 526.738 0.046 57.872 27.788 85.637 85.474 85.728 141.935 0.061 283.87 0.061 425.805 0zM944.641 145.738l-283.455 305.789c-41.677-35.432-81.704-69.571-121.869-103.558-25.965-21.953-29.761-21.832-54.938-0.396-40.543 34.504-81.146 68.948-122.387 103.984l-283.253-305.791 865.901-0.028zM938.247 748.997h-853.205l426.686-363.267 426.519 363.267zM696.81 481.939l278.471-300.406v537.599l-278.471-237.193zM47.915 181.368l278.56 300.693-278.56 237.087v-537.78z" />
<glyph unicode="&#xe901;" glyph-name="header-instagram" d="M826.368 795.061c-12.518 0-22.698-10.181-22.698-22.7s10.181-22.7 22.698-22.7c12.526 0 22.725 10.181 22.725 22.7s-10.199 22.7-22.725 22.7zM512.004 667.97c-121.28 0-219.96-98.68-219.96-219.96s98.68-219.96 219.96-219.96c121.28 0 219.96 98.68 219.96 219.96s-98.68 219.96-219.96 219.96zM849.141 960h-674.282c-96.58 0-174.859-78.28-174.859-174.859v-674.282c0-96.575 78.28-174.858 174.859-174.858h674.282c96.575 0 174.858 78.283 174.858 174.858v674.282c0 96.58-78.283 174.859-174.858 174.859zM512 136.663c-171.66 0-311.341 139.677-311.341 311.337 0 171.68 139.68 311.341 311.341 311.341 171.68 0 311.337-139.661 311.337-311.341 0-171.66-139.657-311.337-311.337-311.337zM826.36 689.62c-45.62 0-82.74 37.1-82.74 82.74s37.1 82.74 82.74 82.74c45.637 0 82.739-37.12 82.739-82.74s-37.118-82.74-82.739-82.74z" />
<glyph unicode="&#xe902;" glyph-name="header-facebook" d="M689.637 959.918c15.641-1.324 31.282-2.73 46.923-4.054 10.214-0.91 20.429-1.82 31.441-2.73 0-54.021 0-107.876 0-163.304-2.953 0-6.304 0.083-9.656 0-33.437-0.579-66.873-0.496-100.31-1.82-43.172-1.737-66.953-25.315-68.389-69.905-1.436-43.598-0.319-87.36-0.319-132.364 57.536 0 114.913 0 173.646 0-7.741-61.963-15.242-122.437-22.823-183.489-50.513 0-99.99 0-150.504 0 0-155.611 0-310.56 0-466.252-61.207 0-121.456 0-182.823 0 0 155.034 0 309.979 0 466.003-50.833 0-100.469 0-150.823 0 0 61.301 0 121.527 0 183.076 49.796 0 99.751 0 150.902 0 0 5.212 0 9.1 0 12.988 0.32 47.982-0.718 96.129 1.357 144.029 2.873 64.859 23.382 122.602 72.459 166.117 33.277 29.534 72.858 43.928 115.79 49.636 3.432 0.496 6.783 1.406 10.214 2.151 27.532-0.083 55.222-0.083 82.913-0.083z" />
<glyph unicode="&#xe903;" glyph-name="header-phone" d="M1022.735 506.879c-0.229 0.747-0.488 1.495-0.741 2.242-0.464 1.351-0.891 2.615-1.12 3.765-8.267 43.852-20.81 85.119-37.224 122.705-32.569 74.543-80.554 140.092-142.574 194.749-58.63 51.669-125.323 89.17-198.241 111.498-15.583 4.77-31.654 8.765-47.182 12.587-7.174 1.781-14.349 3.564-21.495 5.402l-0.602 0.173h-15.698l-1.090-0.546c-18.798-9.627-26.346-21.237-24.422-37.646 2.296-19.628 18.883-26.582 33.032-30.461 7.461-2.041 14.952-3.995 22.441-5.948 24.132-6.293 49.103-12.817 72.406-22.012 84.66-33.42 155.947-89.744 211.903-167.448 40.927-56.812 68.39-121.729 81.62-192.938 3.986-21.438 15.035-32.473 33.803-33.68 0.692-0.057 1.409-0.057 2.156-0.057 10.417 0 23.585 5 31.799 26.667l1.433 1.322v8.908l-0.204 0.719zM797.771 339.807c-35.382 33.792-90.308 34.51-127.73 1.662-18.425-16.173-36.044-33.792-53.066-50.802-5.365-5.377-10.73-10.718-16.125-16.065-3.071-3.017-5.367-6.642-7.204-9.629-106.612 50.603-228.55 181.99-265.915 265.385 1.435 1.265 2.899 2.557 4.248 3.966 7.174 7.328 14.435 14.541 21.696 21.783 16.558 16.523 33.692 33.593 49.476 51.468 33.864 38.392 33.691 92.877-0.402 129.574-47.006 50.605-90.083 94.171-131.637 133.194-44.281 41.61-96.254 42.358-142.571 2.069-21.84-18.995-42.243-40.231-61.959-60.778-6.543-6.811-13.087-13.621-19.687-20.374-32.17-32.847-47.15-74.601-45.745-127.62 1.090-41.669 10.59-84.945 29.846-136.212 41.354-110.033 107.704-213.344 202.866-315.814 71.2-76.7 153.247-141.045 243.79-191.274 66.522-36.899 146.648-75.665 236.757-83.396 7.406-0.632 14.608-0.945 21.581-0.945 43.709 0 78.778 12.554 106.759 38.133 33.834 30.919 66.15 64.2 96.052 98.967 31.937 37.128 30.45 92.277-3.474 128.309-44.082 46.756-90.338 93.313-137.552 138.401zM230.33 816.721c29.76-29.772 59.462-59.571 89.165-89.4l22.614-22.701c2.353-2.357 4.534-4.713 6.515-6.983 15.813-18.219 15.783-33.766 0-50.405-21.639-22.788-44.625-45.087-66.837-66.669l-3.071-2.988c-24.909-24.167-28.124-41.18-13.833-72.733 28.067-62.043 71.142-112.964 105.522-150.407 51.14-55.692 103.313-99.057 159.475-132.59 13.229-7.907 27.177-14.975 40.637-21.785l0.574-0.289c21.897-11.091 42.074-7.755 60.006 9.887 15.24 14.999 30.594 30.402 45.431 45.293 7.491 7.527 14.981 15.029 22.501 22.526l0.885 0.891c2.987 2.987 5.798 5.804 8.839 8.393 16.649 14.139 33.55 13.705 48.905-1.24 18.648-18.13 37.303-36.923 55.354-55.113l13.922-14.023c4.649-4.685 9.327-9.339 14.005-13.994 13.747-13.711 27.976-27.879 41.325-42.3 14.632-15.866 14.921-32.099 0.885-49.628-2.324-2.932-4.877-5.78-7.515-8.508-7.52-7.701-15.066-15.402-22.616-23.074-13.945-14.198-28.355-28.854-42.36-43.51-23.303-24.398-53.175-34.598-91.26-31.209-49.905 4.456-100.213 20.232-163.032 51.212-164.612 81.096-299.32 205.666-400.423 370.271-40.321 65.635-66.952 128.913-81.416 193.427l-0.287 1.293c-0.976 4.397-1.922 8.534-2.383 12.73-0.889 8.103-1.635 16.379-2.353 24.397-0.287 3.276-0.574 6.552-0.889 9.828-1.177 34.025 10.303 62.014 35.097 85.607 13.833 13.162 27.464 26.984 40.665 40.318 7.691 7.787 15.382 15.604 23.16 23.305 22.672 22.616 40.292 22.645 62.791 0.173zM553.984 708.381c99.468-20.891 168.599-79.658 205.504-174.749 3.558-9.139 5.829-18.651 8.207-28.708 1.523-6.379 3.101-12.961 5.028-19.398 4.534-15.144 17.932-25 32.455-25 2.667 0 5.395 0.345 8.093 1.034 18.136 4.684 28.554 21.927 24.826 41.036l-0.259 1.265c-1.234 6.351-2.529 12.931-4.251 19.34-31.564 117.39-105.693 198.053-220.34 239.722-12.457 4.541-25.171 7.414-36.363 9.943-4.42 1.006-8.495 1.925-12.082 2.845l-0.632 0.173h-0.632c-20.232-0.029-35.069-9.914-38.742-25.834-2.153-9.283-0.775-18.105 3.961-25.489 5.137-8.104 14.12-13.852 25.226-16.178z" />
<glyph unicode="&#xe904;" glyph-name="header-map" d="M512.233 960c207.729-2.992 385.548-150.379 420.561-353.71 25.322-147.009-15.375-275.457-119.717-382.122-90.361-92.336-182.346-183.055-273.664-274.439-17.521-17.54-37.072-18.388-53.578-1.887-93.639 93.681-188.118 186.544-280.423 281.5-91.463 94.055-130.508 208.415-119.775 338.896 15.142 184.567 155.455 342.353 336.351 379.214 29.704 6.071 60.134 8.453 90.244 12.548zM510.986 20.604c2.234 1.836 3.394 2.677 4.409 3.664 85.372 85.511 172.135 169.691 255.65 257.009 82.177 85.922 113.885 190.464 94.275 307.728-33.529 200.428-222.666 330.589-422.126 293.089-163.49-30.732-287.646-176.899-290.518-342.469-1.799-103.99 34.027-193.166 107.214-266.975 63.093-63.645 126.621-126.877 189.946-190.321 20.219-20.304 40.321-40.719 61.15-61.725zM720.485 529.081c-0.377-116.132-94.19-209.578-209.962-209.142-115.453 0.436-208.077 94.637-207.786 211.349 0.29 114.417 95.292 207.602 211.035 206.963 113.597-0.61 207.061-95.188 206.713-209.17zM511.509 668.508c-77.307-0.261-139.355-62.83-139.153-140.327 0.203-76.483 62.977-138.702 139.849-138.585 76.292 0.116 138.949 63.294 138.631 139.834-0.29 76.859-62.861 139.341-139.327 139.079z" />
<glyph unicode="&#xe905;" glyph-name="header-shop" d="M721.071 743.581c33.251 0 65.117 0 96.989 0 29.932-0.127 42.689-11.544 45.088-41.349 13.819-171.961 27.569-343.915 41.246-515.861 3.823-47.792 8.865-95.522 11.456-143.376 3.549-65.714-36.733-106.892-102.894-106.935-200.563-0.080-401.11-0.080-601.644 0-67.095 0-107.764 41.414-103.002 108.638 8.716 123.558 19.473 246.973 29.359 370.446 7.463 91.608 15.328 183.193 22.195 274.864 3.359 44.858 11.523 53.617 55.742 53.617h87.462c1.105 72.282 27.339 131.703 85.038 175.093 40.925 30.784 87.59 44.198 138.612 40.755 92.564-6.229 191.59-79.871 194.354-215.89zM230.722 671.299c-0.978-10.056-1.913-18.559-2.593-27.084-4.677-57.713-9.319-115.439-13.925-173.18-11.451-142.041-22.861-284.086-34.228-426.126-2.487-31.529 3.614-37.099 35.971-37.099h575.618c54.493 0 55.979 1.939 51.516 56.619-14.696 179.854-29.28 359.721-43.752 539.605-1.828 22.343-4.084 44.645-6.123 66.818h-73.219v-20.516c0-48.627 0-97.255 0-145.883 0-29.253-12.947-45.155-36.141-44.9s-35.461 16.242-35.525 45.751c0 37.311 0 74.62 0 111.931v53.382h-272.546c0-57.145 0.127-113.015 0-168.864 0-26.192-13.33-41.732-35.057-42.2-22.684-0.488-36.524 15.329-36.587 42.519-0.15 49.96 0 99.919 0 149.9v19.474l-73.409-0.15zM648.491 744.517c-0.192 56.635-22.279 99.303-69.774 125.92-48.194 27.106-97.432 24.916-143.416-6.101-41.477-28.019-60.717-68.328-59.527-119.754l272.716-0.064z" />
<glyph unicode="&#xe906;" glyph-name="footer-map" d="M841.279 629.393c0.25-62.388-17.669-123.5-51.564-175.877-81.465-127.216-163.050-254.382-244.752-381.493-22.904-35.654-43.969-35.494-66.874 0.56-81.183 126.631-163.406 252.583-243.15 380.133-69.871 111.923-73.709 228.761-7.995 342.522 67.712 117.118 174.318 171.561 308.905 164.086 171.201-9.514 306.024-157.091 305.43-329.93zM661.404 630.673c-0.025 29.591-8.822 58.51-25.277 83.104s-39.832 43.756-67.174 55.068c-27.344 11.311-57.427 14.262-86.447 8.48s-55.675-20.036-76.596-40.963c-20.921-20.926-35.168-47.585-40.943-76.607s-2.815-59.104 8.504-86.445c11.318-27.34 30.488-50.712 55.086-67.16s53.519-25.236 83.11-25.253c39.696 0.053 77.75 15.854 105.806 43.934s43.826 66.146 43.852 105.841h0.080zM535.168-64c-135.906 2.834-247.428 13.59-353.514 56.478-34.816 14.070-67.233 31.98-92.975 60.282-34.336 37.693-35.575 86.098-2.439 124.792 27.98 32.815 65.155 52.324 104.727 67.235 21.705 8.192 44.569 13.431 66.314 21.503 14.47 5.398 22.345 2.12 30.619-11.072 43.969-69.953 88.618-139.263 133.187-208.736 49.406-76.986 132.108-76.587 181.675 0.84 42.727 66.715 86.338 132.829 127.391 200.539 11.991 19.989 23.983 25.062 44.406 16.31 40.772-17.549 84.704-29.781 122.037-52.764 88.578-54.523 86.218-137.143-2.36-192.106-66.394-41.212-140.822-59.037-216.809-69.708-54.604-7.678-109.886-10.637-142.262-13.59z" />
<glyph unicode="&#xe907;" glyph-name="footer-email" d="M0 764.372v-632.759l361.581 316.379-361.581 316.38zM45.279 808.005l468.718-410.121 468.72 410.121h-937.439zM616.86 408.134l-102.863-90.017-102.858 90.017-365.86-320.14h937.462l-365.882 320.14zM662.423 447.992l361.577-316.379v632.759l-361.577-316.38z" />
<glyph unicode="&#xe908;" glyph-name="footer-phone" d="M517.709 727.337c172.494-1.87 280.645 9.353 295.187-190.176h210.338c0.199 309.269-258.337 350.838-511.099 350.838-252.764 0-511.104-41.776-511.104-350.838h208.743c16.333 203.477 136.838 191.839 307.935 190.176zM105.368 437.809c51.189 0 93.815-3.117 103.375 49.467 1.195 7.067 1.992 15.172 1.992 24.525h-210.735c0-78.149 47.206-73.992 105.367-73.992zM814.261 511.801h-1.993c0-9.353 0.794-17.459 2.188-24.525 9.961-48.427 52.585-45.517 103.576-45.517 58.559 0 105.968-3.949 105.968 70.043h-209.738zM711.48 565.018v31.176c0 13.925-15.34 14.757-34.262 14.757h-31.070c-18.922 0-34.262-0.831-34.262-14.757v-47.596h-219.098v47.596c0 13.925-15.337 14.757-34.259 14.757h-31.073c-18.922 0-34.259-0.831-34.259-14.757v-58.404c-49.995-54.039-213.324-284.534-219.101-312.389v-186.226c0-17.247 13.345-31.175 29.877-31.175h796.729c16.529 0 29.876 13.927 29.876 31.175v187.059c-5.775 27.023-169.108 257.31-219.1 311.557v27.227zM382.032 200.463c-16.134 0-29.081 13.509-29.081 30.347 0 16.833 12.947 30.342 29.081 30.342s29.081-13.509 29.081-30.342c0-16.839-13.146-30.347-29.081-30.347zM382.032 304.386c-16.134 0-29.081 13.509-29.081 30.342s12.947 30.347 29.081 30.347c16.134 0 29.081-13.513 29.081-30.347s-13.146-30.342-29.081-30.342zM382.032 408.303c-16.134 0-29.081 13.511-29.081 30.347s12.947 30.346 29.081 30.346c16.134 0 29.081-13.51 29.081-30.346s-13.146-30.347-29.081-30.347zM501.541 200.463c-16.134 0-29.082 13.509-29.082 30.347 0 16.833 12.947 30.342 29.082 30.342s29.082-13.509 29.082-30.342c0-16.839-13.148-30.347-29.082-30.347zM501.541 304.386c-16.134 0-29.082 13.509-29.082 30.342s12.947 30.347 29.082 30.347c16.134 0 29.082-13.513 29.082-30.347s-13.148-30.342-29.082-30.342zM501.541 408.303c-16.134 0-29.082 13.511-29.082 30.347s12.947 30.346 29.082 30.346c16.134 0 29.082-13.51 29.082-30.346s-13.148-30.347-29.082-30.347zM621.052 200.463c-16.134 0-29.082 13.509-29.082 30.347 0 16.833 12.947 30.342 29.082 30.342s29.077-13.509 29.077-30.342c-0.195-16.839-13.142-30.347-29.077-30.347zM621.052 304.386c-16.134 0-29.082 13.509-29.082 30.342s12.947 30.347 29.082 30.347c16.134 0 29.077-13.513 29.077-30.347s-13.142-30.342-29.077-30.342zM621.052 408.303c-16.134 0-29.082 13.511-29.082 30.347s12.947 30.346 29.082 30.346c16.134 0 29.077-13.51 29.077-30.346-0.195-16.835-13.142-30.347-29.077-30.347z" />
<glyph unicode="&#xe909;" glyph-name="footer-instagram" d="M512.005 659.952c-121.282 0-219.962-95.090-219.962-211.958s98.68-211.957 219.962-211.957c121.279 0 219.957 95.088 219.957 211.957s-98.676 211.958-219.957 211.958zM826.369 782.452c-12.523 0-22.703-9.81-22.703-21.874s10.18-21.874 22.703-21.874c12.519 0 22.719 9.81 22.719 21.874s-10.2 21.874-22.719 21.874zM849.14 941.375h-674.28c-96.58 0-174.86-75.433-174.86-168.499v-649.752c0-93.067 78.28-168.498 174.86-168.498h674.28c96.58 0 174.86 75.431 174.86 168.498v649.752c0 93.067-78.28 168.499-174.86 168.499zM512.001 147.987c-171.662 0-311.341 134.597-311.341 300.012 0 165.436 139.68 300.016 311.341 300.016 171.677 0 311.34-134.579 311.34-300.016 0-165.415-139.663-300.012-311.34-300.012zM826.362 680.831c-45.623 0-82.741 35.75-82.741 79.73s37.097 79.73 82.741 79.73c45.64 0 82.737-35.77 82.737-79.73s-37.119-79.73-82.737-79.73z" />
<glyph unicode="&#xe90a;" glyph-name="footer-facebook" d="M128.002-44.307h383.998v338.462h-127.998v153.844h127.998v123.077c0 101.981 85.94 184.615 192.003 184.615h128v-153.846h-64.003c-35.318 0-63.999 3.193-63.999-30.77v-123.077h159.618v-153.844h-159.618v-338.462h191.999c70.582 0 128 55.21 128 123.076v738.463c0 67.904-57.42 123.077-128 123.077h-768c-70.621 0-128-55.173-128-123.077v-738.463c0-67.867 57.379-123.076 128-123.076z" />
<glyph unicode="&#xe90b;" glyph-name="mastercard" d="M511.889 106.522h-452.49c-13.15-0.375-26.035 3.748-36.525 11.686-10.489 7.942-17.954 19.223-21.16 31.983-1.201 5.034-1.773 10.195-1.703 15.369 0 188.415 0 376.842 0 565.283-0.153 7.714 1.248 15.38 4.119 22.542s7.154 13.672 12.593 19.144c5.439 5.472 11.924 9.794 19.068 12.708s14.802 4.361 22.517 4.253c302.357 0 604.714 0 907.072 0 7.742 0.173 15.441-1.225 22.631-4.108 7.186-2.884 13.715-7.194 19.191-12.671s9.789-12.006 12.673-19.194c2.884-7.188 4.281-14.886 4.106-22.629 0-188.471 0-376.912 0-565.327 0.2-7.836-1.201-15.631-4.119-22.908s-7.293-13.88-12.85-19.407c-5.561-5.526-12.192-9.861-19.485-12.738-7.293-2.874-15.098-4.232-22.933-3.985h-452.705zM528.7 255.475c84.059-67.074 226.768-73.012 321.091 25.807 22.053 23.233 39.279 50.607 50.681 80.539 11.403 29.936 16.752 61.831 15.741 93.849-1.011 32.016-8.363 63.512-21.632 92.667s-32.186 55.388-55.662 77.18c-98.037 90.611-235.065 76.593-310.044 14.934 36.916-33.64 63.102-77.414 75.284-125.851-6.244 0-11.571 0-16.858 0-3.798 0-5.414 1.048-6.594 4.76-6.837 22.086-16.792 43.084-29.562 62.358-11.287 17.021-24.765 32.482-40.087 45.982-10.002-11.31-20.306-21.834-29.434-33.45-17.151-22.27-30.223-47.404-38.602-74.236-0.655-1.921-2.446-4.804-3.932-4.934-6.157-0.524-12.401 0-19.519 0 12.264 48.39 38.455 92.117 75.328 125.764-77.422 62.969-218.34 75.502-316.549-21.441-93.144-92.009-94.978-245.678-2.402-340.085 95.764-97.687 237.685-89.346 319.039-23.713-34.504 31.58-59.694 72.011-72.838 116.901 6.419 0 11.79-0.306 17.116 0 3.932 0.262 5.417-1.441 6.681-4.893 6.354-18.152 14.857-35.481 25.33-51.615 11.359-17.419 25.017-33.225 40.611-46.986 14.099 12.414 26.609 26.525 37.248 42.009 11.971 17.625 21.657 36.701 28.822 56.767 0.655 1.748 2.094 4.369 3.317 4.369 6.507 0.437 13.1 0 20.349 0-13.281-44.787-38.489-85.117-72.925-116.682v0zM188.044 505.857v-68.559l1.484-0.262c0.524 1.224 1.179 2.359 1.616 3.623 6.812 20.087 13.668 40.175 20.306 60.35 1.179 3.494 2.577 5.022 6.507 4.891 11.048-0.306 22.096 0 33.843 0-1.921-11.31-3.799-21.834-5.589-32.665-4.367-26.201-8.734-52.795-13.1-79.257-0.524-3.361-1.529-4.759-5.153-4.628-6.419 0.262-13.1 0-20.481 0l13.1 82.708-0.873 0.349c-0.568-1.311-1.179-2.621-1.659-3.976-8.734-24.322-17.467-48.604-26.201-73.012-1.572-4.366-3.494-6.812-8.734-6.157-3.622 0.203-7.251 0.203-10.873 0-0.568 27.599-1.135 54.804-1.703 82.009h-1.179c-1.572-8.735-3.1-17.469-4.672-26.507-2.926-17.12-5.939-34.192-8.734-51.312-0.524-3.099-1.529-4.366-4.891-4.366-6.070 0.262-12.14 0-19.039 0 1.529 9.521 2.839 18.383 4.367 27.249 4.672 27.861 9.476 55.677 14.018 83.58 0.699 4.367 2.009 5.939 6.594 5.72 10.262-0.087 20.306 0.219 31.048 0.219zM891.406 505.443c-6.419-39.3-12.707-77.468-19.039-115.851h-22.578v7.118l-4.977-3.539c-3.567-2.703-7.72-4.528-12.124-5.327-4.406-0.799-8.934-0.552-13.225 0.724-4.287 1.277-8.22 3.542-11.471 6.619-3.248 3.077-5.73 6.875-7.243 11.084-9.43 22.621-1.136 55.94 17.775 71.53 5.339 4.838 12.345 7.422 19.551 7.21 7.203-0.212 14.046-3.202 19.095-8.346 1.136-1.049 2.312-2.097 4.366-3.667 1.005 6.025 1.922 11.221 2.796 16.418s1.748 10.524 2.662 16.157l24.413-0.131zM822.891 430.64c0.1-2.587 0.334-5.168 0.699-7.73 2.141-11.833 13.1-15.853 22.269-7.817 2.874 2.318 5.002 5.433 6.116 8.953 1.794 8.020 2.831 16.192 3.099 24.409 0.284 2.815-0.49 5.632-2.166 7.908-1.679 2.278-4.144 3.848-6.915 4.406-3.058 0.833-6.307 0.643-9.246-0.54-2.94-1.179-5.414-3.293-7.043-6.011-4.647-6.969-7.024-15.207-6.812-23.579zM315.731 389.588h-19.783l-0.524 8.735c-5.785-6.441-13.889-10.32-22.533-10.788-3.090-0.381-6.226-0.128-9.216 0.739s-5.772 2.334-8.179 4.313c-2.406 1.975-4.384 4.422-5.815 7.186s-2.286 5.792-2.511 8.897c-2.489 21.835 10.917 38.034 33.625 40.349 5.313 0.696 10.685 0.83 16.026 0.393 0.989-0.159 2-0.115 2.97 0.134 0.97 0.247 1.879 0.693 2.67 1.307s1.446 1.386 1.926 2.263c0.479 0.88 0.773 1.847 0.863 2.846 0.393 1.748-3.624 6.201-5.852 6.375-8.588 0.387-17.19 0.268-25.764-0.349-3.407-0.487-6.766-1.26-10.044-2.312 1.179 7.159 2.14 13.537 3.319 19.911 0 0.699 1.616 1.441 2.577 1.703 12.333 4.068 25.439 5.233 38.297 3.406 12.62-2.402 20.743-10.525 21.354-21.834 0-1.529-1.529-3.099-2.097-4.715-0.877-2.309-1.548-4.693-2.010-7.118-2.88-19.563-5.677-39.301-8.731-58.645-0.115-0.945-0.306-1.882-0.568-2.796v0zM297.827 432.734c-6.773-0.914-13.462-2.375-20-4.369-6.375-2.4-8.428-12.008-4.804-17.466 3.013-4.369 10.83-4.759 16.288-0.262 6.288 5.283 8.297 12.27 8.515 22.097zM716.21 449.105c2.967 9.040 0 14.236-9.346 14.323-8.638-0.331-17.25-1.117-25.807-2.359-1.885-0.328-3.751-0.768-5.589-1.307 1.224 7.071 2.272 13.491 3.579 19.824 0 0.742 1.573 1.485 2.578 1.747 12.333 4.005 25.408 5.169 38.252 3.406 13.581-2.577 21.835-11.050 21.048-24.936-0.786-13.883-2.924-27.465-4.672-41.264-1.136-8.429-2.752-16.77-3.801-25.199-0.347-2.924-1.133-4.366-4.366-4.366-5.327 0-10.654 0-16.418 0v9.827c-2.824-3.308-6.288-6.007-10.183-7.936s-8.142-3.048-12.482-3.289c-3.13-0.428-6.313-0.196-9.346 0.677-3.036 0.874-5.854 2.371-8.276 4.397-2.422 2.028-4.394 4.54-5.789 7.374s-2.182 5.926-2.309 9.081c-1.922 22.184 11.003 37.816 33.45 39.913 6.375 0.611 12.882 0.087 19.476 0.087zM713.589 432.512c-6.369-0.811-12.697-1.947-18.951-3.408-2.456-0.662-4.572-2.225-5.923-4.378-1.354-2.153-1.841-4.737-1.37-7.237 0.15-1.729 0.637-3.408 1.439-4.946 0.802-1.535 1.903-2.899 3.236-4.007 2.263-1.111 4.828-1.445 7.299-0.945 2.471 0.496 4.712 1.797 6.366 3.698 5.679 5.152 7.424 12.008 7.904 21.223zM518.876 415.034c-1.224-7.73-2.097-14.323-3.495-20.743-0.29-0.874-0.774-1.669-1.417-2.325-0.643-0.658-1.429-1.164-2.294-1.473-11.062-3.136-22.684-3.763-34.017-1.835-7.243 0.868-13.993 4.116-19.189 9.24-5.193 5.121-8.535 11.827-9.502 19.057-3.563 16.402-0.836 33.546 7.642 48.035 7.599 12.706 18.427 20.523 33.755 20.698 20.131 0 33.537-12.447 33.887-32.752-0.275-6.816-0.961-13.612-2.054-20.347-0.393-3.364-2.137-4.369-5.545-4.369-13.1 0.219-26.594 0-39.913 0-4.847 0-5.632-1.879-4.934-5.939 1.224-7.555 6.9-12.27 16.156-13.1 10.651-1.002 21.37 1.026 30.919 5.851v0zM475.774 448.090c1.922 0 3.189-0.393 4.366-0.393 6.057-0.306 12.124-0.219 18.168 0.262 2.007 0.262 5.283 4.019 5.021 5.677-1.398 8.735-7.293 12.667-15.722 10.351-7.511-2.141-10.173-8.21-11.833-15.896v0zM665.379 478.006c-5.632 1.79-10.435 3.668-15.46 4.804-5.592 1.492-11.518 1.142-16.898-0.997s-9.927-5.955-12.969-10.879c-4.106-6.185-6.856-13.169-8.061-20.496-1.205-7.324-0.839-14.823 1.073-21.994 0.502-2.805 1.573-5.477 3.152-7.848 1.576-2.371 3.623-4.394 6.013-5.941 2.393-1.548 5.077-2.59 7.886-3.055 2.812-0.468 5.686-0.353 8.451 0.337 5.414 0.917 10.654 2.752 17.12 4.369-1.441-8.21-2.752-16.202-4.369-24.194 0-0.743-1.616-1.526-2.574-1.788-10.092-3.167-20.827-3.695-31.181-1.529-7.112 1.567-13.631 5.127-18.795 10.26s-8.763 11.63-10.373 18.733c-3.28 11.088-4.113 22.752-2.44 34.189 1.675 11.44 5.813 22.378 12.133 32.056 14.498 22.358 36.77 29.476 64.063 21.091 7.293-2.227 7.246-2.227 5.939-9.869-0.917-5.677-1.704-11.223-2.709-17.249zM326.123 391.061l3.058 20.481c6.026-0.961 11.746-2.137 17.466-2.618 4.206-0.509 8.466-0.243 12.576 0.786 1.46 0.524 2.784 1.382 3.857 2.503 1.077 1.124 1.879 2.478 2.344 3.96-0.115 1.541-0.568 3.040-1.323 4.387-0.752 1.351-1.791 2.518-3.042 3.427-3.972 3.276-9.084 4.981-13.45 7.642-10.698 6.987-13.887 17.076-11.877 29.39 0.605 5.377 2.865 10.432 6.46 14.476 3.598 4.041 8.357 6.871 13.627 8.1 12.75 3.755 25.589 2.14 38.908 0.48l-3.495-20.613c-7.031 0-13.625 0.437-20.175 0-3.342-0.353-6.444-1.903-8.731-4.366-0.565-0.752-0.952-1.622-1.133-2.546-0.178-0.924-0.143-1.879 0.1-2.787s0.693-1.751 1.311-2.459c0.618-0.711 1.388-1.273 2.253-1.639 2.709-1.573 5.589-2.84 8.385-4.369 13.1-6.769 18.776-17.466 16.814-31.265-1.966-13.799-9.346-22.228-24.456-25.414-13.184-1.932-26.628-1.098-39.476 2.444zM436.561 498.083l-2.097-13.799 11.79-0.568c-0.914-7.119-1.744-13.972-2.88-20.741 0-0.83-2.184-1.791-3.408-1.922-2.88-0.262-5.851 0-9.3 0-2.49-14.236-4.981-28.167-7.205-42.097-0.83-5.065 2.097-7.642 6.9-8.079 2.815-0.062 5.63 0.053 8.429 0.349-1.049-6.375-1.966-12.488-3.189-18.558-0.237-0.652-0.628-1.236-1.136-1.707s-1.124-0.815-1.791-1.002c-5.558-1.298-11.234-2.044-16.942-2.225-2.384-0.115-4.765 0.281-6.984 1.164-2.218 0.88-4.222 2.228-5.879 3.948-1.654 1.722-2.921 3.776-3.717 6.029-0.792 2.25-1.095 4.647-0.886 7.024 0.393 9.558 1.488 19.073 3.274 28.472 3.146 19.694 6.725 39.301 9.827 58.995 0.565 3.712 1.832 5.022 5.545 4.847 6.375-0.349 12.838-0.131 19.651-0.131zM563.326 484.033c-0.393-4.804-0.699-8.428-1.049-13.1 3.801 4.060 6.769 7.597 10.089 10.741 1.648 1.561 3.685 2.645 5.901 3.137s4.521 0.374 6.675-0.343c-2.749-8.428-5.327-16.682-8.123-24.849-0.306-0.958-1.482-2.312-2.4-2.4-7.861-0.786-11.007-6.332-12.445-13.1-3.058-13.668-5.723-27.424-8.472-41.179-0.874-4.366-1.529-8.735-2.359-13.1h-24.016c2.705 17.466 5.414 34.935 7.948 52.401 1.832 12.401 3.579 24.846 5.021 37.336 0.437 3.755 1.748 5.065 5.458 4.891 5.677-0.655 11.353-0.436 17.772-0.436zM745.335 389.305c4.762 31.965 9.39 62.927 14.105 94.28h21.835l-0.655-12.183c6.9 5.851 11.003 15.633 21.835 13.1-2.49-8.429-4.847-16.723-7.424-24.934-0.265-0.611-0.668-1.152-1.177-1.586-0.506-0.43-1.105-0.739-1.751-0.905-3.083-0.315-5.964-1.688-8.151-3.885s-3.551-5.081-3.857-8.167c-3.274-15.328-6.113-30.569-9.259-46.156-2.356-11.396 0.611-9.346-11.484-9.565-4.453-0.087-9.038 0-14.018 0z" />
<glyph unicode="&#xe90c;" glyph-name="paypal" d="M0 135.862v624.071c6.454 15.115 18.046 20.126 33.968 20.126 318.757-0.255 637.447-0.325 956.063-0.213 25.008 0 33.969-9.171 33.969-34.477v-594.901c0-25.478-9.045-34.521-33.969-34.521-318.617 0-637.234 0-955.851 0-16.135-0.213-27.726 4.84-34.18 19.914zM619.912 551.414v-0.637c-8.493 0-17.411-0.552-26.070 0-12.058 0.892-17.917-4.246-20.466-16.008-8.918-40.549-18.257-81.013-27.684-121.435-7.388-31.717-8.49-28.574 23.907-28.616 1.781-0.233 3.593-0.106 5.328 0.367s3.359 1.287 4.776 2.391c1.417 1.108 2.6 2.482 3.483 4.051 0.883 1.566 1.445 3.292 1.654 5.080 2.081 9.976 4.503 19.872 6.751 29.72 0.449 3.623 2.272 6.936 5.095 9.252 2.819 2.315 6.424 3.456 10.064 3.189 7.182-0.134 14.367 0.094 21.528 0.68 26.283 2.804 50.951 9.852 66.617 33.246 23.142 33.968 6.411 71.036-34.263 75.876-13.545 1.741-27.217 1.995-40.762 2.845h0.042zM183.893 551.753v-0.722c-10.233 0-20.465-0.255-30.656 0s-14.946-4.246-16.984-14.012c-9.214-41.229-18.98-82.371-28.49-123.558-7.218-31.25-8.789-28.913 25.476-28.021 4.501 0 9.808 5.731 12.738 10.104s2.76 9.3 3.821 14.055c6.921 30.145 3.482 29.253 35.156 30.23 24.967 0.722 48.787 7.134 66.577 26.665 6.87 7.145 11.639 16.045 13.781 25.723s1.576 19.759-1.638 29.135c-5.732 18.81-21.484 25.476-39.233 27.641-13.375 1.784-27.175 1.784-40.592 2.76h0.042zM547.645 511.968c-10.869 0-18.639-0.509-26.368 0-13.035 1.062-21.231-4.756-27.387-15.88-8.493-15.625-17.662-30.826-26.622-46.152-2.588-4.248-5.434-8.493-9.382-14.904-1.205 3.059-2.212 6.193-3.016 9.382-2.801 16.008-5.307 32.060-8.153 48.023-3.14 17.791-5.052 19.277-22.799 19.319-3.016 0-6.029 0-9.087 0-9.297 0.255-12.738-3.355-10.954-13.248 6.411-35.325 12.1-70.738 18.3-106.151 1.253-5.122 1.432-10.447 0.528-15.645-0.907-5.195-2.879-10.147-5.793-14.543-5.538-8.068-10.383-16.588-14.479-25.476-1.19-2.507 0-8.832 1.784-9.639 14.649-6.581 36.302 0.765 44.412 14.479 30.43 51.349 60.803 102.697 91.118 154.044 2.421 4.246 4.203 8.747 7.856 16.39h0.042zM281.041 479.105c11.185 2.801 22.527 4.928 33.969 6.369 9.358 0.534 18.746-0.412 27.809-2.802 3.271-0.849 5.14-7.132 7.601-10.956-2.907-2.276-6.181-4.038-9.679-5.222-11.169-1.911-22.76-1.869-33.628-4.712-12.799-2.934-25.139-7.592-36.686-13.842-15.285-9.045-21.018-29.72-15.328-46.069 5.010-14.31 19.701-22.927 39.064-19.872 13.035 2.081 25.476 7.813 36.896 11.421 3.638-3.374 7.795-6.141 12.313-8.192 5.553-1.584 11.433-1.584 16.986 0 4.712 1.484 11.251 5.265 12.313 9.297 6.963 26.622 13.545 53.457 18.427 80.674 3.523 19.361-4.627 30.018-23.734 34.858-21.471 4.825-43.727 4.984-65.261 0.467-17.707-3.184-23.312-11.464-21.104-31.42h0.042zM719.523 479.105c11.266 2.774 22.696 4.845 34.22 6.199 9.382 0.403 18.767-0.671 27.812-3.184 0.631-0.191 1.201-0.542 1.656-1.019 1.056-1.132 1.802-2.518 2.164-4.023 0.364-1.505 0.328-3.080-0.1-4.569-0.428-1.487-1.232-2.84-2.34-3.923-1.104-1.083-2.473-1.863-3.972-2.261-5.859-1.359-12.228-0.722-18.002-2.252-16.982-4.5-34.857-7.598-50.569-15.071-16.982-8.153-23.437-30.149-17.407-47.131 5.349-15.074 20.973-23.606 41.141-19.914 12.355 2.294 24.077 7.983 36.22 12.186 0-8.787 6.624-10.147 15.113-9.424 3.195 0.255 6.402 0.255 9.597 0 1.869-0.346 3.79-0.303 5.641 0.121 1.854 0.428 3.598 1.226 5.131 2.351 1.529 1.126 2.816 2.555 3.774 4.194 0.959 1.641 1.572 3.462 1.799 5.349 5.692 25.051 11.806 50.059 16.986 75.195 1.699 8.162 0.176 16.664-4.245 23.73-4.424 7.066-11.405 12.149-19.492 14.187-21.737 5.435-43.648 4.246-65.512 0.34-16.901-2.76-23.227-12.653-19.617-30.953v-0.127zM853.821 384.676c8.705-0.977 18.342 0 21.231 12.738 10.359 46.706 20.763 93.708 30.782 140.625 0.301 1.734 0.194 3.513-0.306 5.199s-1.383 3.235-2.582 4.523c-12.738 8.492-35.495-0.595-38.723-15.243-9.34-42.459-18.624-84.919-27.851-127.378-4.333-19.492-3.611-20.338 17.407-20.338l0.042-0.127zM626.62 467.732c-16.303 0.425-18.172 2.63-14.561 18.087 1.144 4.883 2.461 9.766 3.565 14.649 3.905 16.984 6.241 18.937 20.806 18.767 19.021 0 27.259-4.756 29.423-16.262 1.144-6.162 0.064-12.53-3.046-17.972s-8.047-9.604-13.936-11.75c-7.276-2.364-14.713-4.205-22.25-5.52v0zM177.439 466.837c-15.837 2.039-17.409 3.99-14.139 18.257 1.359 6.029 2.845 12.059 3.992 18.13 1.783 9.553 5.265 17.366 16.984 16.984s25.731 1.444 32.1-12.993c1.964-5.125 2.121-10.766 0.447-15.992s-5.083-9.725-9.66-12.753c-9.171-5.435-19.786-7.941-29.722-11.634zM342.949 443.61c-0.51-28.234-12.738-40.677-33.969-39.275-7.431 0.51-13.757 3.568-13.97 10.872 0 5.222 2.676 13.584 6.454 15.241 13.563 5.186 27.414 9.582 41.484 13.162v0zM780.62 444.617c-2.121-28.744-7.385-35.579-32.439-38.213-8.278-0.807-14.561 2.634-16.388 11.251-1.032 3.62-0.598 7.501 1.205 10.805s4.83 5.768 8.432 6.86c12.061 4.117 25.054 6.199 39.19 9.297z" />
<glyph unicode="&#xe90d;" glyph-name="visa" d="M0.002 184.422v527.158c-0.006 6.194 1.211 12.329 3.579 18.052s5.841 10.924 10.221 15.305c4.38 4.38 9.581 7.853 15.305 10.221s11.858 3.584 18.052 3.579h929.722c6.192 0 12.322-1.22 18.042-3.591s10.915-5.844 15.291-10.224c4.376-4.38 7.846-9.578 10.21-15.3 2.367-5.721 3.582-11.853 3.576-18.043v-527.158c0-12.5-4.963-24.487-13.798-33.33s-20.822-13.815-33.322-13.827h-929.722c-12.507 0-24.502 4.969-33.346 13.812s-13.812 20.839-13.812 33.344v0zM684.874 318.078c16.32 0 31.64 1.161 46.675-0.361 16.042-1.645 24.381 4.009 28.714 19.727 1.923 6.978 8.74 17.566 13.913 17.924 25.785 1.846 51.771 0.842 77.876 0.842 1.493-9.199 3.568-18.291 6.216-27.226 1.481-4.012 6.055-10.027 9.543-10.227 17.564-1.040 35.207-0.478 54.495-0.478-18.446 87.978-36.090 172.429-54.015 257.883-19.088 0-36.37 0-53.693 0s-27.43-8.020-33.766-23.218c-31.33-74.907-62.703-149.854-94.116-224.841-0.897-3.284-1.513-6.637-1.843-10.024v0zM100.453 576.002c23.859-17.684 43.468-31.078 61.594-46.356 7.917-6.65 13.808-15.389 17.002-25.223 12.952-44.831 24.462-90.105 36.291-135.259 13.233-50.845 13.233-50.165 65.043-51.086 15.559-0.281 21.895 5.854 27.228 19.246 26.307 66.328 53.533 132.332 80.401 198.457 5.213 12.792 10.144 25.704 16.039 40.661-18.326 0-34.324-1.002-50.163 0.281-14.878 1.203-22.017-3.409-27.189-18.326-17.564-50.887-37.133-101.173-58.025-157.434-12.431 62.156-23.739 118.577-35.047 175.038h-133.173zM508.15 383.24c-2.565-15.039-5.854-29.954-7.256-45.073-0.401-4.33 4.009-12.311 7.416-13.314 48.805-14.033 97.285-17.483 143.319 9.585 40.984 24.060 59.788 93.434 0 128.32-12.030 7.098-25.585 12.030-36.411 20.732l-0.361 0.281c-3.376 2.836-5.92 6.53-7.37 10.694-1.447 4.164-1.742 8.641-0.854 12.959 0.885 4.318 2.923 8.316 5.897 11.571 2.972 3.255 6.769 5.646 10.99 6.921h0.321c10.385 2.727 22.455 0.682 33.562-0.962 11.236-2.179 22.349-4.963 33.285-8.341 2.725 18.446 5.253 35.409 7.66 51.809-42.428 21.413-106.988 15.238-141.955-12.632-40.703-32.441-39.74-85.453 2.806-114.966 14.197-9.826 30.837-16.042 44.673-26.467 7.058-5.253 15.758-16.801 14.197-23.137-2.006-8.021-12.672-17.165-21.375-19.73-12.855-3.362-26.278-3.952-39.38-1.725-15.959 2.608-31.636 8.462-49.163 13.474zM390.138 318.437c19.008 0 34.967 0.883 50.765-0.278 13.194-1.003 17.325 4.931 19.008 16.721 4.614 31.72 10.107 63.279 15.159 94.916 7.619 48.121 15.196 96.242 23.057 145.605h-66.445c-13.715-84.652-27.31-169.103-41.543-256.964zM822.977 498.041c5.894-28.070 11.749-56.46 18.005-86.498h-54.255l31.6 86.978 4.651-0.481z" />
<glyph unicode="&#xe90e;" glyph-name="check" d="M363.921 58.255l-354.072 353.771c-0.005 0.004-0.011 0.011-0.016 0.016-6.297 6.317-9.833 14.873-9.833 23.791 0 8.922 3.539 17.48 9.839 23.798 0.003 0.004 0.007 0.007 0.010 0.011l130.426 130.365c3.114 3.126 6.813 5.603 10.887 7.296 4.073 1.69 8.441 2.56 12.851 2.56s8.778-0.87 12.851-2.56c4.073-1.693 7.773-4.169 10.887-7.296l0.038-0.038 200.605-200.278 448.062 448.062c3.112 3.124 6.813 5.603 10.886 7.294 4.075 1.691 8.442 2.562 12.853 2.562s8.776-0.871 12.851-2.562c4.072-1.691 7.773-4.17 10.886-7.293l130.345-130.462c0.011-0.013 0.025-0.026 0.036-0.038 6.232-6.328 9.713-14.861 9.687-23.744-0.027-8.901-3.575-17.428-9.867-23.722 0-0.001 0-0.001 0-0.001l-488.544-488.543c-1.593-1.548-3.322-2.95-5.164-4.192l-1.826-1.23-107.087-107.574c-0.004-0.004-0.009-0.009-0.013-0.013-3.121-3.12-6.825-5.594-10.901-7.282-4.081-1.69-8.456-2.563-12.876-2.563-4.418 0-8.794 0.872-12.876 2.563s-7.792 4.169-10.915 7.296l-0.009 0.011z" />
<glyph unicode="&#xe90f;" glyph-name="circle-down" d="M731.010 215.603c4.569 131.883-97.694 235.013-225.966 232.133-124.844-2.789-222.58-113.552-211.746-240.045 0.412-4.573 1.508-9.141 1.554-13.714 0.45-9.256-2.587-18.344-8.511-25.469-5.924-7.13-14.305-11.773-23.489-13.020-9.176-1.291-18.492 1.067-25.945 6.576-7.454 5.504-12.451 13.714-13.917 22.864-9.645 51.517-2.651 101.665 16.365 150.034 52.663 134.077 196.57 210.831 334.716 179.288 68.711-15.149 129.691-54.469 171.843-110.801s62.675-125.93 57.826-196.122c-0.321-4.573-0.826-9.141-1.555-13.714-4.252-26.559-20.25-41.142-41.828-38.265-21.577 2.882-33.051 20.527-30.538 47.683 0.686 5.53 1.050 10.833 1.191 12.572zM509.647 8.975h-313.003c-6.835-0.505-13.707-0.233-20.479 0.826-18.286 4.569-29.623 16.091-29.76 35.291 0 20.25 11.382 32.502 30.994 36.569 6.792 0.866 13.65 1.063 20.48 0.593h628.11c3.791 0 7.586 0 11.425 0 24.551-0.866 40.597-15.721 40.185-37.211-0.365-20.615-15.818-34.878-39.178-35.928-5.302 0-10.648 0-15.954 0l-312.819-0.141zM549.331 719.087c16.275 16.868 28.342 30.080 41.142 42.605 19.337 18.971 40.457 20.754 56.363 5.394 15.911-15.36 14.948-37.348-3.747-56.319-33.736-34.164-67.687-68.067-101.849-101.714-20.527-20.16-38.766-19.977-59.429 0.503-34.255 33.524-68.174 67.443-101.758 101.759-17.783 18.286-18.971 39.222-4.206 54.857s37.12 14.948 56.366-3.291c6.582-6.309 13.258-12.617 19.289-19.428 6.036-6.811 11.386-14.217 17.053-21.394l6.765 3.017c0 31.421 0 62.842 0 94.262 0 10.651-0.501 21.348 0 32 1.419 21.394 16.916 36.159 36.574 35.931 4.775 0.001 9.502-0.949 13.907-2.794 4.401-1.845 8.394-4.548 11.742-7.952 3.352-3.404 5.988-7.44 7.762-11.874 1.77-4.434 2.644-9.176 2.565-13.95 0.777-37.303 0-74.65 0.272-111.953 0.093-4.571 0.642-8.915 1.191-19.657zM73.161 191.874c-12.114 0-24.274-0.545-36.571 0-21.44 1.191-36.343 16.139-36.571 35.888-0.153 4.762 0.65 9.506 2.363 13.951 1.712 4.45 4.297 8.508 7.605 11.939 3.307 3.427 7.268 6.163 11.649 8.034 4.381 1.875 9.093 2.851 13.858 2.872 25.006 1.006 50.285 1.006 75.108 0 4.765-0.017 9.479-0.984 13.865-2.842 4.387-1.863 8.359-4.577 11.684-7.994 3.325-3.413 5.934-7.455 7.678-11.887 1.743-4.436 2.585-9.177 2.476-13.938-0.275-19.75-15.132-34.698-36.571-35.884-12.343-0.686-24.502-0.141-36.571-0.141zM950.847 264.969c12.115 0 24.274 0.597 36.569 0 21.485-1.235 36.297-16.183 36.574-35.928 0.114-4.766-0.721-9.506-2.455-13.943-1.73-4.441-4.331-8.491-7.648-11.918-3.312-3.422-7.275-6.154-11.654-8.034-4.38-1.875-9.088-2.864-13.854-2.908-24.96-0.957-50.060-0.957-75.063 0-4.766 0.035-9.475 1.019-13.854 2.895-4.38 1.871-8.342 4.599-11.654 8.021-3.317 3.422-5.917 7.468-7.652 11.904s-2.565 9.172-2.451 13.934c0.365 19.886 15.085 34.562 36.569 35.748 12.252 0.826 24.415 0.228 36.574 0.228zM258.257 516.31c-6.811-8.046-12.937-22.171-23.36-26.742s-28.297-3.063-37.303 3.474c-18.643 14.338-35.523 30.833-50.285 49.142-12.16 14.217-11.292 31.269 0.777 45.714s29.668 18.788 42.788 8.549c22.354-17.508 41.142-39.588 60.8-60.342 3.383-3.154 3.474-9.509 6.583-19.794zM799.026 482.34c-7.59 6.171-21.397 12.114-25.328 21.942-4.296 10.834-4.16 28.663 2.24 37.486 14.843 19.135 31.856 36.485 50.696 51.702 13.442 11.474 29.989 10.422 44.068-0.548 14.083-10.971 20.163-29.165 9.923-42.377-17.83-22.857-40.457-42.24-61.67-62.445-3.338-3.108-9.782-3.108-19.929-5.759z" />
<glyph unicode="&#xe910;" glyph-name="circle-up" d="M731.010 215.602c4.569 131.883-97.694 235.013-225.966 232.133-124.844-2.789-222.58-113.552-211.746-240.045 0.412-4.573 1.508-9.141 1.554-13.714 0.45-9.256-2.587-18.344-8.511-25.469-5.924-7.13-14.305-11.773-23.489-13.020-9.176-1.291-18.492 1.067-25.945 6.576-7.454 5.504-12.451 13.714-13.917 22.864-9.645 51.517-2.651 101.665 16.365 150.034 52.663 134.077 196.57 210.831 334.716 179.288 68.711-15.149 129.691-54.469 171.843-110.801s62.675-125.93 57.826-196.122c-0.321-4.573-0.826-9.141-1.555-13.714-4.252-26.559-20.25-41.142-41.828-38.265-21.577 2.882-33.051 20.527-30.538 47.683 0.686 5.53 1.050 10.833 1.191 12.572zM509.647 8.974h-313.003c-6.835-0.505-13.707-0.233-20.479 0.826-18.286 4.569-29.623 16.091-29.76 35.291 0 20.25 11.382 32.502 30.994 36.569 6.792 0.866 13.65 1.063 20.48 0.593h628.11c3.791 0 7.586 0 11.425 0 24.551-0.866 40.597-15.721 40.185-37.211-0.365-20.615-15.818-34.878-39.178-35.928-5.302 0-10.648 0-15.954 0l-312.819-0.141zM474.347 762.248c-16.275-16.868-28.346-30.080-41.144-42.605-19.337-18.971-40.457-20.754-56.365-5.394s-14.948 37.348 3.748 56.319c33.737 34.164 67.686 68.068 101.852 101.714 20.523 20.16 38.766 19.977 59.424-0.503 34.259-33.524 68.175-67.444 101.762-101.759 17.782-18.286 18.972-39.222 4.204-54.857-14.764-15.634-37.118-14.948-56.363 3.291-6.585 6.309-13.257 12.617-19.293 19.428s-11.382 14.217-17.053 21.394l-6.765-3.017c0-31.421 0-62.842 0-94.262 0-10.651 0.505-21.348 0-32-1.415-21.394-16.912-36.16-36.569-35.932-4.775-0.001-9.502 0.949-13.907 2.794s-8.398 4.548-11.746 7.952c-3.347 3.403-5.988 7.44-7.758 11.874-1.774 4.434-2.644 9.176-2.565 13.95-0.777 37.303 0 74.651-0.277 111.953-0.093 4.571-0.637 8.914-1.186 19.657zM73.161 191.873c-12.114 0-24.274-0.545-36.571 0-21.44 1.191-36.343 16.139-36.571 35.888-0.153 4.762 0.65 9.506 2.363 13.951 1.712 4.45 4.297 8.508 7.605 11.939 3.307 3.427 7.268 6.163 11.649 8.034 4.381 1.875 9.093 2.851 13.858 2.872 25.006 1.006 50.285 1.006 75.108 0 4.765-0.017 9.479-0.984 13.865-2.842 4.387-1.863 8.359-4.577 11.684-7.994 3.325-3.413 5.934-7.455 7.678-11.887 1.743-4.436 2.585-9.177 2.476-13.938-0.275-19.75-15.132-34.698-36.571-35.884-12.343-0.686-24.502-0.141-36.571-0.141zM950.847 264.968c12.115 0 24.274 0.597 36.569 0 21.485-1.235 36.297-16.183 36.574-35.928 0.114-4.766-0.721-9.506-2.455-13.943-1.73-4.441-4.331-8.491-7.648-11.918-3.312-3.422-7.275-6.154-11.654-8.034-4.38-1.875-9.088-2.864-13.854-2.908-24.96-0.957-50.060-0.957-75.063 0-4.766 0.035-9.475 1.019-13.854 2.895-4.38 1.871-8.342 4.599-11.654 8.021-3.317 3.422-5.917 7.468-7.652 11.904s-2.565 9.172-2.451 13.934c0.365 19.886 15.085 34.562 36.569 35.748 12.252 0.826 24.415 0.228 36.574 0.228zM258.257 516.309c-6.811-8.046-12.937-22.171-23.36-26.742s-28.297-3.063-37.303 3.474c-18.643 14.338-35.523 30.833-50.285 49.142-12.16 14.217-11.292 31.269 0.777 45.714s29.668 18.788 42.788 8.549c22.354-17.508 41.142-39.588 60.8-60.342 3.383-3.154 3.474-9.509 6.583-19.794zM799.026 482.34c-7.59 6.171-21.397 12.114-25.328 21.942-4.296 10.834-4.16 28.663 2.24 37.486 14.843 19.135 31.856 36.485 50.696 51.702 13.442 11.474 29.989 10.422 44.068-0.548 14.083-10.971 20.163-29.165 9.923-42.377-17.83-22.857-40.457-42.24-61.67-62.445-3.338-3.108-9.782-3.108-19.929-5.759z" />
<glyph unicode="&#xe911;" glyph-name="reloj" d="M511.248-63.9c-283.4 0.282-511.421 228.903-511.248 512.582 0.173 283.189 228.762 511.122 512.683 511.219 282.475 0.096 512.279-230.351 511.314-512.74-0.964-284.007-229.052-511.342-512.75-511.061zM511.248 28.847c232.373 0.128 420.097 188.213 419.917 420.731-0.171 229.581-188.469 417.4-418.541 417.478-231.535 0.077-419.49-187.27-419.789-418.422s187.752-419.882 418.451-419.779l-0.038-0.009zM465.005 588.287c0 40.727 0 81.458 0 122.192 0 40.837 16.422 63.249 46.48 63.644s47.502-22.345 47.53-62.604c0-74.912 0.347-149.824-0.288-224.727-0.106-14.235 4.15-24.376 14.341-34.259 35.502-34.432 70.308-69.624 105.087-104.74 23.644-23.866 25.87-51.151 6.309-71.272-20.168-20.756-48.156-18.646-72.803 5.895-42.291 42.059-84.148 84.553-126.699 126.343-13.936 13.685-20.312 29.231-20.101 48.619 0.472 43.63 0.144 87.279 0.144 130.907z" />
<glyph unicode="&#xe912;" glyph-name="eye" d="M512.103 784.99c224.952-11.711 394.641-111.293 503.606-310.459 10.708-19.572 11.271-36.658 0.36-56.15-110.169-198.561-278.252-307.891-505.331-307.37-226.158 0.201-393.6 109.691-502.888 307.651-10.508 18.93-10.428 35.535 0 54.545 108.607 200.168 278.815 300.031 504.251 311.782zM512.103 716.008c-188.418-8.783-333.481-90.198-431.82-252.305-7.42-12.031-8.342-21.778-0.602-34.411 98.821-161.225 242.319-250.060 431.419-250.379 189.979-0.323 334.081 88.593 433.143 250.539 7.781 12.715 6.577 22.3-0.763 34.412-98.219 162.228-243.441 243.402-431.498 252.145h0.121zM715.642 446.818c0.482-111.736-92.242-204.54-204.018-204.259-53.74 0.42-105.164 21.934-143.19 59.908s-59.613 89.37-60.106 143.108c-0.482 111.775 92.242 204.54 204.018 204.219 53.744-0.388 105.181-21.887 143.211-59.859 38.033-37.972 59.613-89.375 60.085-143.116zM646.943 446.177c0.066 17.736-3.358 35.312-10.081 51.723-6.726 16.412-16.616 31.339-29.108 43.929-25.233 25.426-59.53 39.787-95.346 39.926-35.82 0.138-70.228-13.958-95.652-39.189-25.427-25.23-39.788-59.527-39.927-95.346-0.881-73.754 60.158-135.559 134.476-136 35.841 0.041 70.214 14.254 95.624 39.535 25.406 25.278 39.792 59.579 40.014 95.422v0z" />
<glyph unicode="&#xe913;" glyph-name="alert" d="M511.538-63.998c-96.704 0.098-191.208 30.245-271.551 86.63s-142.911 136.476-179.787 230.13c-36.876 93.654-46.402 196.664-27.372 295.995 19.030 99.329 65.761 190.511 134.278 262.004s155.74 120.086 250.629 139.626c94.888 19.54 193.178 9.15 282.429-29.855s165.45-104.873 218.95-189.265c53.504-84.392 81.906-183.516 81.613-284.826-0.447-135.587-52.191-265.458-143.891-361.142s-215.873-149.374-345.297-149.299zM593.714 665.277c-2.942 21.592-3.626 43.983-9.277 64.575-4.352 16.547-13.759 31.146-26.778 41.565s-28.937 16.085-45.321 16.132c-16.365-0.283-32.216-6.071-45.204-16.51s-22.43-24.977-26.929-41.467c-4.619-15.905-6.784-32.481-6.412-49.101 3.321-98.641 26.984-193.367 53.434-287.328 2.975-10.678 14.733-23.752 24.502-26.028 15.458-3.64 22.444 12.595 26.107 26.27 23.775 89.125 46.676 178.528 55.878 271.892zM576.46 191.82c0 41.225-27.020 71.135-64.424 70.973-36.145 0-63.625-29.868-64.312-69.53-0.725-40.266 26.984-71.573 63.814-71.973s64.81 29.589 64.922 70.53z" />
<glyph unicode="&#xe914;" glyph-name="marks" d="M479.031 565.085c-2.014-89.249-42.61-179.799-104.727-261.901-74.163-98.37-168.624-174.705-269.759-243.575-19.745-13.386-37.081-9.833-51.772 8.609-32.224 40.399-31.078 49.836 9.636 82.929 59.907 48.929 115.944 101.254 154.012 170.164 16.903 30.724 16.27 33.489-17.375 45.494-64.409 22.983-122.894 55.011-161.634 113.811-79.691 120.999-37.2 338.116 177.153 362.048 104.096 11.65 171.863-43.756 224.897-124.197 29.065-44.032 40.123-86.246 39.57-153.38zM788.24 844.4c46.52 1.185 91.421-16.428 130.318-49.955 107.138-92.21 127.396-206.258 84.312-335.983-28.591-86.168-79.889-157.961-141.573-223.12-62.75-66.226-133.832-122.42-209.298-173.758-22.43-15.322-38.701-12.637-56.195 8.767-3.356 3.948-6.673 8.135-9.872 12.321-16.508 21.561-15.48 36.331 5.054 54.734 24.010 21.482 48.967 41.9 72.899 63.501 41.39 36.851 75.796 80.863 101.569 129.923 10.623 20.376 8.332 23.497-12.992 33.368-36.845 17.061-75.98 31.672-108.717 54.774-90.314 63.184-120.721 167.122-85.22 274.891 28.947 87.906 121.907 150.3 229.715 150.538z" />
<glyph unicode="&#xe915;" glyph-name="arrow" d="M9.019 448.001c0 15.15 12.282 27.432 27.432 27.432h960.117c15.151 0 27.432-12.282 27.432-27.432s-12.281-27.432-27.432-27.432h-960.117c-15.15 0-27.432 12.282-27.432 27.432zM246.539 688.101c11.401-9.976 12.558-27.307 2.581-38.709l-176.218-201.392 176.218-201.392c9.978-11.401 8.82-28.732-2.581-38.709s-28.732-8.819-38.709 2.581l-207.83 237.52 207.83 237.52c9.977 11.402 27.307 12.557 38.709 2.581z" />
<glyph unicode="&#xe916;" glyph-name="angle" d="M232.436 943.338c22.216 22.216 58.236 22.216 80.453 0l495.338-495.339-495.338-495.338c-22.217-22.215-58.237-22.215-80.453 0s-22.216 58.237 0 80.452l414.886 414.886-414.886 414.885c-22.216 22.217-22.216 58.237 0 80.453z" />
</font>
</defs>
</svg>
