<svg width="325" height="140" viewBox="0 0 325 140" fill="none" xmlns="http://www.w3.org/2000/svg">
<path d="M1 103.092L60.1021 108.284C60.1021 108.284 85.6825 111.567 115.386 100.343C115.386 100.343 130.124 94.6929 133.942 89.3482C137.76 84.0035 147.992 75.0702 166.929 76.1391L193.12 77.6662C193.12 77.6662 201.367 74.8411 194.953 69.5728C194.953 69.5728 183.575 65.6024 191.287 61.0212C199 56.44 203.352 67.893 203.352 67.893C203.352 67.893 207.247 85.836 182.964 84.3089C182.964 84.3089 170.289 74.0012 147.915 72.9323C147.915 72.9323 137.378 71.787 123.175 55.142C123.175 55.142 108.819 38.9552 116.913 33.5341C116.913 33.5341 119.815 32.3888 122.64 34.2976C122.64 34.2976 126.153 36.1301 126.153 33.5341C126.153 30.9381 125.695 25.517 129.971 26.6623C133.407 27.5786 135.163 29.6401 136.08 32.1597C136.385 32.9996 135.469 33.6868 134.705 33.1523C133.483 32.2361 132.109 30.5563 132.033 27.3495C131.956 25.4407 132.873 23.6082 134.476 22.692C136.08 21.7757 138.218 21.7757 139.898 26.3569L140.05 34.6794C140.05 34.6794 139.898 40.7876 147.228 41.2458C154.482 41.6275 157.308 40.6349 160.896 45.6742C164.485 50.7135 166.394 55.142 175.634 56.0583C175.634 56.0583 184.262 54.0731 176.55 46.6668L168.227 39.4896C168.227 39.4896 168.227 39.0315 168.151 38.3443C167.845 35.4429 166.623 32.6942 164.638 30.48C164.638 30.48 168.074 32.7706 171.129 36.5119C174.183 40.2532 176.168 43.0782 179.757 43.5364C183.422 43.9945 184.568 42.9255 184.568 42.9255C184.568 42.9255 177.161 42.162 172.503 34.8321C172.503 34.8321 167.005 28.9529 166.7 23.5319C166.7 23.5319 169.22 26.4333 174.641 28.1894C179.986 29.9455 182.812 36.0538 182.812 36.0538C182.812 36.0538 187.317 45.4452 201.367 49.5682C201.367 49.5682 190.524 41.1694 187.317 26.9677C187.317 26.9677 185.026 17.8054 169.907 17.729H150.893C150.893 17.729 153.337 23.7609 149.366 23.8373C145.472 23.9136 146.235 22.4629 145.319 20.5541C144.403 18.6453 144.021 17.6527 143.181 17.1946C142.341 16.7364 141.654 10.7809 146.694 11.6971C151.733 12.6134 153.337 14.904 166.242 15.133C166.242 15.133 172.35 14.1404 178.612 11.5444C184.873 8.94842 191.517 7.49771 198.313 7.65042C204.039 7.80312 210.225 8.94842 214.653 12.6134C221.144 17.9581 221.068 23.3791 220.075 26.8914C219.235 29.7165 215.875 30.9381 213.508 29.182C211.523 27.7313 209.156 24.9062 206.865 19.4088C206.865 19.4088 203.505 2.53476 219.922 1.08406C226.947 0.473231 233.972 3.22194 238.859 8.3376C243.823 13.5296 249.397 22.6156 251.535 37.7335L254.589 64.6862C254.589 64.6862 257.644 98.6633 276.046 97.9761C276.046 97.9761 285.362 96.2963 289.638 91.7915C289.638 91.7915 286.584 146.46 208.926 138.138C208.926 138.138 132.491 126.838 169.449 109.658C169.449 109.658 186.553 100.343 220.457 104.161C221.068 104.237 221.678 104.313 222.289 104.39C226.871 105.153 248.557 108.513 265.432 108.513C284.369 108.513 324 108.36 324 108.36" stroke="#4F7076" stroke-width="1.3" stroke-miterlimit="10"/>
</svg>
