<svg width="222" height="356" viewBox="0 0 222 356" fill="none" xmlns="http://www.w3.org/2000/svg">
<path d="M8.68881 354.495C13.3917 353.325 18.0259 351.894 22.57 350.21C25.5581 351.495 28.7014 352.383 31.9199 352.852C45.0832 354.74 58.3968 348.32 65.1906 336.815C66.0884 339.271 69.7331 347.737 78.6722 352.437C86.7043 356.66 96.7818 356.812 108.622 352.884L109.117 352.719C110.02 352.42 110.958 352.11 111.882 351.833C118.087 349.972 148.686 338.026 141.82 285.509C141.781 285.315 138.095 268.509 133.277 256.299C133.243 256.182 129.051 241.683 134.387 236.75C134.916 236.261 135.675 235.588 136.634 234.743C145.318 227.066 171.745 203.706 180.597 177.759C180.666 177.616 189.209 159.875 199.745 144.857C201.675 142.129 203.392 139.257 204.881 136.265C207.601 152.146 204.372 168.355 200.843 179.881C198.191 188.617 194.675 197.066 190.348 205.105L190.347 205.147C190.261 205.363 181.946 226.814 185.302 239.232C188.614 251.485 178.657 296.215 178.558 296.666C172.101 320.877 173.917 329.961 174.001 330.341C174.784 334.863 176.768 338.03 179.897 339.743C185.959 343.062 194.109 339.812 194.732 339.554C203.348 337.625 205.061 338.425 209.691 340.569C210.175 340.798 210.697 341.037 211.257 341.291C216.239 343.517 219.124 347.65 219.854 348.802C204.88 354.839 172.027 350.628 171.694 350.585L171.613 351.22C171.95 351.263 205.482 355.549 220.449 349.249L220.78 349.121L220.604 348.805C218.431 345.262 215.263 342.437 211.495 340.683L209.933 339.966C205.177 337.761 203.401 336.937 194.546 338.934L194.494 338.953C194.407 338.984 186.084 342.407 180.185 339.176C177.249 337.565 175.366 334.547 174.614 330.219C174.593 330.116 172.753 320.86 179.16 296.826C179.58 294.97 189.244 251.48 185.896 239.071C182.641 227.013 190.615 206.178 190.906 205.414C195.246 197.35 198.775 188.875 201.442 180.115C205.064 168.301 208.364 151.598 205.343 135.31C209.045 127.459 210.352 119.93 208.956 113.781C207.692 108.216 204.302 103.845 198.873 100.787C194.204 98.1008 188.432 96.0188 182.331 93.8081C167.423 88.4193 152.005 82.8476 148.932 68.2254C149.27 67.2573 151.907 59.3429 149.604 54.9158C148.847 53.4505 147.412 51.0415 145.784 48.4064L146.586 42.4941C147.519 32.2459 145.986 23.7179 142.011 17.1039C140.659 14.8402 138.994 12.7783 137.066 10.979C137.409 10.7527 137.774 10.5631 138.156 10.4132C140.076 9.63148 142.759 9.5182 145.861 9.96133C149.929 13.4635 152.711 18.1137 154.206 23.9119C156.718 33.6182 155.058 44.5707 154.052 51.0878C153.735 53.1709 153.478 54.8149 153.431 55.9916C153.124 61.4134 155.491 63.4475 157.528 64.2002C158.607 64.5812 159.766 64.6783 160.893 64.4823C164.629 63.866 177.211 61.2186 182.305 52.9549C184.685 49.0929 185.083 44.536 183.48 39.4036C180.229 28.9912 170.897 19.2358 158.52 13.3378C154.619 11.4255 150.461 10.0888 146.176 9.36944C142.01 5.8234 136.56 3.46688 129.826 2.29989C111.217 -0.911518 98.0011 3.00528 90.1921 6.85566C81.7102 11.0353 77.5747 16.0626 77.5342 16.1124L77.493 16.1794C77.3527 16.4782 74.1348 23.5684 76.7908 28.7251C77.5302 30.1507 78.6778 31.3236 80.0869 32.0941C79.3002 35.2753 78.8352 38.5275 78.6989 41.8017C78.2245 52.145 83.0681 55.2834 84.05 55.8147C84.5793 59.7995 82.392 63.339 80.937 65.6903C80.4774 66.3622 80.0874 67.0792 79.7731 67.8302C79.4707 68.7654 79.2119 69.5737 79.584 70.2483C79.9561 70.9228 80.7725 71.302 82.4869 71.7335C85.5465 72.5006 86.5546 75.7499 86.5623 75.7716L86.5608 75.8101C86.5965 75.8844 89.8779 83.1225 93.4223 88.464C94.4294 89.9906 95.7185 90.8853 97.2518 91.1255C100.314 91.6056 103.228 89.3159 103.347 89.222L111.626 81.2761C116.994 74.8744 111.822 65.3551 109.451 61.6624C109.644 61.7686 109.783 61.8297 109.8 61.839L109.884 61.8766L109.978 61.8802C110.565 61.798 111.128 61.5967 111.634 61.2886C112.14 60.9805 112.578 60.5721 112.92 60.0887C115.346 56.807 114.727 49.9519 114.144 46.1536C114.014 45.2584 113.686 44.4037 113.182 43.6526C112.678 42.9015 112.012 42.2732 111.233 41.814C110.109 41.1786 109.066 41.1119 108.134 41.6153C105.069 43.2649 104.207 50.709 104.042 52.5238C97.815 50.6682 97.7846 43.4719 97.796 43.1809C97.3855 36.9339 95.6656 33.0396 92.6799 31.5897C89.009 29.8001 84.7526 32.3372 83.9878 32.8257C82.8957 32.6223 81.8356 32.2737 80.8359 31.7892C84.9534 16.4078 97.1592 7.09475 116.638 4.65359C121.044 4.07086 125.525 4.77194 129.543 6.6727C131.902 7.79617 134.097 9.23454 136.069 10.9484C133.341 13.3097 132.609 18.0977 133.956 24.9386C135.158 30.8897 137.473 36.5605 140.778 41.6534C142.147 43.7984 143.7 46.2548 145.119 48.5475L143.126 63.2752C143.121 63.4035 141.143 76.5891 148.282 93.7278C150.345 98.5099 151.979 103.466 153.165 108.537L138.701 114.689C139.292 108.605 139.381 102.482 138.969 96.3835C138.931 95.3921 137.973 71.8451 130.099 68.3092C130.023 68.272 121.162 63.7589 120.249 59.5021L119.887 57.8123L119.619 59.5159C119.615 59.6186 117.999 70.2214 120.546 90.4968C120.481 93.0429 119.812 95.5373 118.593 97.7738C115.9 102.755 110.713 105.962 103.595 107.042C99.8643 107.546 96.1033 107.795 92.3384 107.787C82.5434 107.973 74.8069 108.119 69.7173 119.55C67.1791 125.34 66.3785 131.743 67.4129 137.981C68.8298 146.975 72.3586 161.778 81.1439 181.21C82.9057 185.209 83.8623 189.516 83.9591 193.885C84.0903 200.481 82.0648 209.945 71.6821 217.573L40.1324 243.371C39.0818 243.934 12.7413 258.204 4.84815 285.059C-3.56116 313.71 2.0387 334.817 11.3198 343.032C14.4301 345.799 17.9313 348.092 21.7104 349.838C17.3957 351.424 12.9981 352.775 8.53705 353.885L8.68881 354.495ZM204.701 135.182C203.143 138.428 201.317 141.537 199.241 144.477C188.674 159.537 180.112 177.328 180.028 177.505C171.211 203.338 144.881 226.611 136.233 234.26C135.274 235.114 134.511 235.782 133.977 236.28C128.347 241.484 132.517 255.901 132.695 256.512C137.504 268.7 141.18 285.454 141.216 285.618C148.009 337.592 117.84 349.384 111.721 351.218C110.789 351.499 109.851 351.809 108.939 352.112L108.444 352.277C96.778 356.143 86.8714 356.007 79.0029 351.871C68.7705 346.495 65.6275 336.056 65.5973 335.952L65.386 335.22L64.8656 336.142C61.6049 341.776 56.7423 346.313 50.8961 349.176C45.05 352.038 38.4845 353.097 32.0347 352.218C29.0955 351.79 26.2195 351.005 23.47 349.881C42.6907 342.54 57.7995 330.997 69.3776 314.858C81.4946 297.978 87.295 279.136 91.5292 265.366C92.8211 261.166 94.0438 257.198 95.2528 253.907C104.279 229.312 117.089 215.523 117.218 215.387C117.419 215.176 137.349 193.82 148.148 160.167C155.677 136.691 156.767 122.13 153.926 108.918L157.918 107.219C158.07 107.156 173.105 100.903 186.267 106.964C194.033 110.539 199.642 117.65 202.944 128.09C203.669 130.417 204.256 132.786 204.701 135.182ZM153.303 109.168C156.085 122.257 154.978 136.703 147.517 159.979C136.774 193.498 116.931 214.746 116.734 214.957C116.604 215.097 103.705 228.981 94.6441 253.695C93.4299 257.007 92.2154 260.983 90.9104 265.192C83.1302 290.479 70.5508 331.373 22.5764 349.503C18.6286 347.758 14.9775 345.407 11.755 342.535C2.61398 334.462 -2.87136 313.605 5.47143 285.229C13.396 258.229 40.2045 244.047 40.4539 243.915L40.511 243.879L72.0783 218.068C82.6689 210.277 84.7417 200.588 84.5997 193.833C84.4989 189.383 83.5221 184.997 81.7251 180.924C72.9797 161.567 69.4613 146.824 68.0515 137.869C67.0476 131.761 67.8369 125.494 70.3236 119.826C75.2486 108.766 82.8049 108.626 92.3683 108.444C95.9665 108.375 99.6847 108.302 103.716 107.689C121.483 104.958 121.215 90.5959 121.208 90.4499C119.163 74.2953 119.768 64.3299 120.103 60.9319C122.21 65.0128 129.487 68.7181 129.827 68.89C137.366 72.2669 138.317 96.195 138.329 96.4141C138.746 102.599 138.646 108.807 138.03 114.975L129.056 118.797C128.977 118.845 120.816 123.59 109.078 119.671C96.7647 115.554 89.4497 117.517 86.9518 120.453C84.454 123.389 84.693 130.949 90.2306 139.009C96.0633 147.517 99.848 156.018 99.3042 169.876C98.744 184.155 103.047 189.607 103.235 189.833L103.456 190.103L103.705 189.865C103.803 189.77 113.587 180.255 122.773 164.044C129.305 152.524 136.556 135.701 138.648 115.385L153.303 109.168ZM137.954 115.696C135.826 135.741 128.653 152.335 122.206 163.73C113.918 178.365 105.135 187.512 103.511 189.137C102.654 187.818 99.4537 182.121 99.9332 169.901C100.484 155.867 96.6649 147.258 90.7632 138.648C85.4045 130.836 85.0522 123.653 87.4416 120.858C90.0106 117.856 97.6314 116.51 108.892 120.268C120.625 124.187 128.904 119.622 129.381 119.358L137.954 115.696ZM145.651 49.404C147.096 51.7619 148.346 53.8765 149.035 55.2063C151.311 59.5809 148.328 68.0003 148.299 68.0849L148.27 68.1694L148.288 68.2601C151.387 83.299 167.714 89.1978 182.114 94.4039C188.191 96.6007 193.946 98.6778 198.557 101.293C203.823 104.259 207.111 108.485 208.348 113.873C209.663 119.676 208.507 126.757 205.156 134.18C204.729 132.058 204.189 129.96 203.538 127.895C200.18 117.272 194.452 110.032 186.513 106.378C173.089 100.199 157.794 106.563 157.65 106.63L153.771 108.282C152.573 103.215 150.935 98.2626 148.875 93.481C141.802 76.4907 143.739 63.5006 143.761 63.3686L145.651 49.404ZM108.407 60.1044L107.902 60.5132C108 60.637 117.577 73.2089 111.184 80.8345L102.951 88.735C102.951 88.735 100.152 90.9265 97.3752 90.4918C96.0293 90.2804 94.8865 89.4814 93.9803 88.1131C90.5534 82.9433 87.3686 75.9747 87.1876 75.5647C87.0805 75.2349 85.9755 71.9432 82.6488 71.1013C81.1635 70.7302 80.3934 70.37 80.1494 69.9276C79.9053 69.4852 80.094 68.9355 80.3913 68.0216C80.69 67.3197 81.058 66.6494 81.4897 66.0205C83.0136 63.552 85.3152 59.8283 84.6649 55.5432L84.6374 55.3707L84.4773 55.3001C84.4225 55.2765 78.8492 52.6066 79.3455 41.8142C79.4769 38.6353 79.9252 35.4774 80.6838 32.3875C81.7424 32.882 82.8607 33.2371 84.0107 33.4437L84.1433 33.4489L84.2533 33.3761C84.2975 33.3435 88.7906 30.3401 92.4151 32.1107C95.1735 33.4574 96.7719 37.1713 97.1675 43.1434C97.1652 43.2033 97.1601 51.4139 104.277 53.193L104.65 53.2848L104.665 52.904C104.669 52.8141 105.335 43.8024 108.452 42.1292C109.188 41.7295 109.999 41.7914 110.93 42.3207C111.626 42.7311 112.22 43.2927 112.669 43.9638C113.118 44.6349 113.411 45.3985 113.525 46.1979C113.982 49.1727 114.79 56.4424 112.418 59.6533C111.843 60.4624 110.971 61.0107 109.993 61.178C109.408 60.9153 108.871 60.5552 108.406 60.113L108.407 60.1044ZM147.066 10.1586C150.939 10.9235 154.697 12.1873 158.245 13.9184C170.465 19.7417 179.671 29.3293 182.872 39.5983C184.392 44.5432 184.04 48.9219 181.766 52.6166C176.809 60.65 164.46 63.2423 160.794 63.8484C159.775 64.0266 158.728 63.9397 157.753 63.5962C155.919 62.9201 153.794 61.0583 154.077 56.0298C154.143 54.8839 154.392 53.2524 154.696 51.1859C155.695 44.6043 157.366 33.5879 154.833 23.7651C153.406 18.1981 150.817 13.6626 147.066 10.1586ZM136.571 11.3624C142.611 16.896 147.413 26.3322 145.946 42.4219L145.252 47.5371C143.947 45.4332 142.559 43.236 141.319 41.2933C138.062 36.2603 135.784 30.6577 134.605 24.7798C133.662 19.9903 133.35 14.0686 136.571 11.3624ZM120.647 3.81672C119.288 3.7638 117.927 3.82362 116.578 3.99559C96.8538 6.46996 84.481 15.8879 80.2664 31.4498C79.0374 30.7413 78.0374 29.6952 77.3849 28.4355C74.9636 23.7423 77.8318 17.0455 78.0809 16.4853C78.44 16.0709 82.5073 11.3623 90.53 7.41744C98.2514 3.61505 111.319 -0.243274 129.736 2.9563C135.906 3.99548 140.98 6.0801 144.956 9.21017C142.157 8.91177 139.728 9.09931 137.93 9.81727C137.457 10.003 137.007 10.2443 136.591 10.5361C134.559 8.74046 132.286 7.23901 129.836 6.07569C126.96 4.70136 123.833 3.93248 120.647 3.81672Z" fill="#DEAB98" stroke="#DEAB98" stroke-width="0.5"/>
</svg>
