<svg width="190" height="197" viewBox="0 0 190 197" fill="none" xmlns="http://www.w3.org/2000/svg">
<path d="M77.5875 58.8329C77.5875 58.8329 46.1993 45.3886 17.9356 56.1336C17.9356 56.1336 7.92865 59.1756 3.59483 61.6626C3.59483 61.6626 33.004 60.2801 48.4042 61.2422C48.4042 61.2422 79.1524 62.6618 90.2539 64.9972C90.2539 64.9972 68.9024 63.9288 59.6612 66.8318C50.42 69.7349 32.0442 68.7196 23.4309 67.2376C23.4309 67.2376 41.7665 80.2528 68.1427 72.3814C69.4356 71.9968 70.751 71.6724 72.0707 71.39L93.8394 66.8676C93.8394 66.8676 103.271 67.8452 107.428 71.7967C107.428 71.7967 94.8819 71.7404 80.4685 77.777C66.0551 83.8135 54.6074 84.764 47.3857 84.8486C47.3857 84.8486 73.521 90.7041 97.6426 81.9764C97.6426 81.9764 116.487 76.968 125.051 78.07L132.184 83.8148C132.184 83.8148 123.659 79.1136 111.145 85.7744C111.145 85.7744 86.4305 98.6435 77.5384 98.2403L57.2308 97.6943C57.2308 97.6943 77.83 110.961 102.752 100.981C102.752 100.981 129.416 88.3906 132.688 87.2431C134.19 86.7172 135.808 86.6204 137.362 86.9636C138.916 87.3069 140.343 88.0766 141.484 89.1863L156.297 100.755C156.297 100.755 145.144 97.4794 136.294 101.992C136.294 101.992 122.169 110.784 115.955 116.855C115.955 116.855 105.372 124.787 103.316 125.549C101.259 126.311 99.243 127.949 96.6329 127.513C94.0228 127.077 87.4802 125.892 87.4802 125.892C87.4802 125.892 82.0256 123.184 91.9624 121.934C101.899 120.685 106.527 122.218 122.616 119.239C134.013 117.126 145.311 112.446 150.933 109.894C153.605 108.675 156.378 107.693 159.221 106.958L162.232 106.188L168.728 115.074C168.728 115.074 157.748 106.25 149.273 116.825C149.273 116.825 143.102 123.026 135.814 137.459C128.527 151.891 129.713 153.159 124.487 160.138C121.342 164.33 118.563 168.783 116.179 173.45C116.179 173.45 131.833 162.226 143.046 151.194C150.118 144.138 156.455 136.383 161.961 128.047C161.961 128.047 167.053 120.697 168.553 118.177C168.553 118.177 172.596 118.88 174.52 124.687C174.52 124.687 165.305 128.277 162.664 148.886C162.664 148.886 159.094 166.585 160.129 177.009C160.838 183.504 162.459 189.866 164.943 195.909C164.943 195.909 163.595 185.357 168.727 170.782C173.86 156.207 178.839 139.227 178.485 130.848L180.561 134.875L188.46 112.264L185.121 103.893C185.121 103.893 180.792 111.559 180.036 125.953C180.036 125.953 178.305 122.412 179.146 114.079C179.987 105.747 184.422 78.5382 184.422 78.5382C184.422 78.5382 189.163 54.5429 184.238 46.4002C184.238 46.4002 174.299 27.6989 154.523 26.048C154.523 26.048 176.228 39.3333 176.187 63.4164C176.188 64.1726 176.188 64.9289 176.226 65.6801C176.464 70.6708 177.403 91.279 176.955 101.605C176.446 113.403 176.443 122.974 176.443 122.974C176.443 122.974 175.686 123.487 174.965 121.581C174.243 119.675 167.125 96.0328 167.125 96.0328C167.125 96.0328 163.24 82.7976 163.424 77.1682C163.609 71.5388 161.728 60.0822 161.728 60.0822C161.728 60.0822 160.392 47.7092 154.52 43.5744L144.525 36.1145C144.525 36.1145 139.028 31.5361 138.625 29.5725C138.223 27.6088 140.358 25.7186 143.912 30.8474C147.466 35.9762 147.461 41.3671 149.093 51.6694L149.071 67.0176C149.071 67.0176 147.666 78.5632 154.276 86.6571L171.373 114.836C171.373 114.836 159.701 99.1184 149.593 92.4503C139.485 85.7822 127.733 77.1384 127.733 77.1384C127.733 77.1384 123.689 71.5251 123.743 65.5041C123.189 59.9699 122.992 54.4057 123.155 48.8462C123.409 43.1834 122.318 37.541 119.971 32.3811C118.144 28.4318 115.412 24.4357 111.274 21.9373C111.274 21.9373 105.643 16.9876 94.0486 14.6229L76.9349 12.1724C76.9349 12.1724 68.7223 9.19407 76.4318 7.43902C76.4318 7.43902 99.872 6.94203 108.32 34.3176C108.32 34.3176 110.911 40.9658 111.055 52.9817C111.199 64.9976 120.237 71.761 120.237 71.761C120.237 71.761 106.743 67.4671 100.083 52.778C100.083 52.778 93.7532 40.1249 93.1381 31.8329C93.1381 31.8329 90.5692 12.0116 93.2116 2.38353C93.2116 2.38353 82.9943 9.9325 84.6935 28.8834C86.3927 47.8344 100.273 65.4841 100.273 65.4841C100.273 65.4841 92.7653 63.2282 85.1179 61.5116C85.1179 61.5116 67.9285 24.4318 32.8982 26.874L25.6415 27.6373C25.6415 27.6373 44.03 27.5512 77.5875 58.8329Z" stroke="#DEAB98" stroke-width="1.5" stroke-miterlimit="10"/>
</svg>
