<svg width="463" height="157" viewBox="0 0 463 157" fill="none" xmlns="http://www.w3.org/2000/svg">
<path d="M132.43 155.999C128 155.999 124.67 155.739 124.43 155.719C116.399 154.957 108.488 153.245 100.86 150.619L81.63 149.839C31.75 147.239 0.89 155.719 0.63 155.839L0 153.829C0.31 153.739 31.46 145.179 81.68 147.829L94.9 148.369C91.8537 147.111 88.8822 145.678 86 144.079C83.0934 142.509 80.6542 140.197 78.93 137.379C76.87 133.919 76.28 130.379 77.21 127.199C76.83 126.859 76.45 126.509 76.09 126.199C72.61 122.729 71.22 119.349 71.96 116.139C73.33 110.139 81.65 107.219 81.96 107.139H82.08C96.88 104.139 109.3 106.019 119 112.629C133.43 122.469 136.54 139.159 136.67 139.869C137.53 144.439 136.96 147.799 134.99 149.869C134.198 150.623 133.25 151.193 132.213 151.539C131.176 151.884 130.076 151.997 128.99 151.869L108.72 151.049C113.89 152.401 119.16 153.334 124.48 153.839C124.6 153.839 138.1 154.839 147.08 152.779L186 140.399C186.06 140.399 192.6 138.149 192 134.549C191.728 134.007 191.28 133.574 190.73 133.319C189.29 132.559 186.3 132.059 180.22 134.019L156.37 142.529C155.98 142.659 147.26 145.579 142.8 142.969C142.14 142.597 141.572 142.081 141.137 141.459C140.703 140.838 140.413 140.127 140.29 139.379V139.249C140.29 139.089 139.08 122.309 125.36 111.769C114.26 103.239 98.21 100.999 77.65 105.129L69.35 106.799L77 103.239C77.19 103.159 94.2 95.3993 118.84 92.9693C113.12 90.9693 106.47 86.1693 104.28 74.8193L104 73.1693L105.6 73.6793C105.6 73.6793 110 74.9993 116.76 73.0693L118.08 72.6893L120.29 72.0593C119.95 70.6495 119.839 69.1943 119.96 67.7493C120.267 64.0934 121.817 60.6529 124.35 57.9993C129.91 52.0593 130.07 50.5293 130.07 50.3693V48.2993L131.7 49.6093C131.77 49.6793 139.23 55.6793 145.86 58.4693L146.3 58.6493C149.57 60.0293 152.75 61.3693 154.9 63.6493C157.976 61.2089 161.631 59.6069 165.51 58.9993C166.09 58.9993 178.6 58.0993 187.35 67.0993L187.46 67.2293C188.806 68.8173 190.554 70.0155 192.52 70.6993L198.52 73.0893L192.03 72.6293C191.96 72.6293 184.29 72.1493 179.53 77.5693C177.307 79.9875 174.694 82.0156 171.8 83.5693C173.312 84.5922 174.687 85.8055 175.89 87.1793C181.89 87.1793 188.16 87.3093 194.25 87.7993C196.262 87.9553 198.228 88.4808 200.05 89.3493C201.433 90.0039 202.769 90.7523 204.05 91.5893V68.2693C204.05 68.2693 203.76 59.6493 214.39 56.1793C216.577 55.5 218.85 55.1331 221.14 55.0893L225.21 54.9693L221.45 54.3593V36.3593H226.37V30.9993H232.37V18.1893C231.591 17.934 230.898 17.4665 230.37 16.8393C229.898 16.1909 229.566 15.4519 229.394 14.6689C229.222 13.8858 229.214 13.0756 229.37 12.2893V8.34927C226.76 8.16927 219.01 7.88927 214.85 10.6593L213.85 11.3393L213.39 10.2093C212.685 8.69719 211.607 7.3886 210.259 6.40578C208.911 5.42296 207.335 4.79799 205.68 4.58927L201.55 4.10927L205.44 2.65927C205.69 2.55927 230.31 -6.34073 254.09 8.98927L254.39 9.17927L254.5 9.50927C254.716 10.1738 254.779 10.8784 254.686 11.5708C254.592 12.2632 254.344 12.9257 253.96 13.5093C253.01 14.7493 251.31 15.3093 248.96 15.1593H248.61L248.35 14.9193C246.952 13.6608 245.464 12.5045 243.9 11.4593V15.8093L243.83 15.9893C243.564 16.5771 243.158 17.0906 242.647 17.4846C242.136 17.8787 241.536 18.1413 240.9 18.2493V30.9993H245.34V35.0793H250.62V53.3593L248.91 53.7193C255.48 54.2693 263.91 55.8693 266.23 60.3693C266.33 60.5793 268.23 64.7693 268.62 73.9893V122.139C268.38 124.329 266.4 128.609 260.62 129.139L259.53 129.239V72.7093C259.53 72.4593 259.6 67.0293 255.78 66.4993C254.759 66.3871 253.733 66.6573 252.9 67.2576C252.067 67.8578 251.487 68.7456 251.27 69.7493C250.811 71.8126 250.629 73.9279 250.73 76.0393V127.159H249.68C249.46 127.159 227.45 126.159 219.41 130.899C219.171 131.04 218.984 131.255 218.878 131.511C218.772 131.767 218.751 132.051 218.82 132.319C218.874 132.586 219.013 132.828 219.217 133.009C219.421 133.19 219.678 133.298 219.95 133.319H262.57C262.97 133.319 271.2 133.149 271.57 119.779V82.9993C271.611 81.8269 271.9 80.6764 272.417 79.6234C272.934 78.5704 273.667 77.6386 274.57 76.8893C276.243 75.5159 278.24 74.5933 280.37 74.2093C278.623 73.5127 277.042 72.4565 275.73 71.1093C274.908 70.2271 274.29 69.1751 273.921 68.0276C273.551 66.8801 273.438 65.6653 273.59 64.4693C273.828 62.4659 274.605 60.5645 275.837 58.9674C277.07 57.3703 278.712 56.1372 280.59 55.3993C282.205 54.7313 283.879 54.2157 285.59 53.8593C283.47 52.6593 280.91 50.7293 280.27 48.1193C279.78 46.1193 280.46 44.1193 282.27 42.1193C283.437 40.872 284.828 39.8545 286.37 39.1193L294.54 35.1193C297.602 33.6026 300.845 32.4835 304.19 31.7893C309.32 30.7393 313.07 31.0393 315.34 32.6693C316.009 33.1567 316.566 33.7821 316.974 34.5032C317.381 35.2243 317.628 36.0243 317.7 36.8493C317.808 37.9245 317.697 39.0105 317.374 40.0417C317.051 41.0729 316.522 42.028 315.82 42.8493C312.921 46.3345 309.232 49.0773 305.06 50.8493C312.31 51.1493 322.93 52.5993 327.68 58.2793C330.04 61.1093 330.68 64.6493 329.68 68.7993C329.63 69.0793 328.06 76.4093 311.97 78.0793C319.3 81.1793 333.65 88.2693 333.58 96.1893C333.286 98.7396 332.031 101.082 330.07 102.739C328.56 104.08 326.814 105.128 324.92 105.829C329.53 107.532 333.884 109.86 337.86 112.749C340.142 114.418 341.848 116.757 342.74 119.439C342.959 120.09 343.117 120.759 343.21 121.439H352.56C365.789 121.442 379.004 122.307 392.12 124.029L462.04 133.239L461.78 135.239L391.86 126.039C378.83 124.325 365.702 123.463 352.56 123.459H343.28C343.18 124.989 342.65 126.459 341.75 127.699C338.53 132.169 330.42 134.489 317.65 134.619C310.25 134.619 286.02 134.119 284.53 128.459C283.86 125.869 287.53 123.799 288.71 123.119H288.81C289.06 123.019 294.93 120.609 306.02 121.509H341.19C341.109 121.031 340.992 120.56 340.84 120.099C340.071 117.818 338.614 115.83 336.67 114.409C332.102 111.117 327.039 108.575 321.67 106.879C317.768 107.683 313.774 107.949 309.8 107.669C309.33 107.669 299.65 106.519 293.24 102.759L290.37 100.999L293.71 100.829C303.225 100.57 312.719 101.878 321.81 104.699C324.394 104.144 326.8 102.955 328.81 101.239C330.369 99.9497 331.39 98.1233 331.67 96.1193C331.74 88.6893 314.05 80.7293 307.22 78.2893L302.22 76.5193L307.49 76.3493C325.96 75.7593 327.76 68.4093 327.78 68.3493C328.69 64.7593 328.18 61.8993 326.22 59.5693C319.46 51.4793 298.09 52.8793 297.87 52.8993L297.65 50.8993C304.173 49.948 310.119 46.6351 314.36 41.5893C314.89 40.9781 315.29 40.2662 315.538 39.4963C315.785 38.7265 315.874 37.9145 315.8 37.1093C315.756 36.5592 315.594 36.0249 315.327 35.542C315.06 35.0592 314.693 34.6389 314.25 34.3093C312.48 33.0393 309.16 32.8493 304.66 33.7593C301.483 34.4511 298.405 35.5396 295.5 36.9993L287.33 40.9993C286.019 41.6177 284.832 42.4719 283.83 43.5193C282.45 44.9993 281.94 46.3693 282.26 47.7093C282.97 50.5993 287.6 52.8393 289.33 53.4493L293.33 54.8793L289.11 55.3893C286.45 55.6713 283.842 56.3208 281.36 57.3193C279.819 57.9213 278.469 58.9286 277.453 60.2348C276.438 61.5409 275.794 63.0973 275.59 64.7393C275.466 65.6555 275.548 66.5878 275.83 67.4683C276.112 68.3488 276.587 69.1553 277.22 69.8293C279.16 71.9393 282.47 73.1293 285.61 73.8293C288.377 73.8728 291.134 74.1606 293.85 74.6893L293.68 76.6893C290.903 76.6838 288.133 76.4058 285.41 75.8593C280.27 75.8593 277.41 77.1993 275.88 78.5293C275.206 79.0746 274.651 79.7529 274.25 80.5219C273.849 81.2909 273.611 82.1342 273.55 82.9993V119.749C273.17 135.119 262.83 135.269 262.55 135.269H219.87C219.172 135.212 218.511 134.935 217.98 134.478C217.449 134.022 217.076 133.41 216.914 132.729C216.752 132.048 216.809 131.333 217.078 130.686C217.347 130.04 217.813 129.495 218.41 129.129C226.01 124.599 244.14 124.909 248.75 125.069V76.0693C248.643 73.7897 248.841 71.5061 249.34 69.2793C249.68 67.7949 250.555 66.4881 251.799 65.6097C253.043 64.7312 254.567 64.3429 256.08 64.5193C260.55 65.1393 261.61 70.1593 261.55 72.7393V126.999C262.809 126.791 263.973 126.199 264.882 125.304C265.791 124.409 266.402 123.255 266.63 121.999V73.9993C266.29 65.2893 264.46 61.2593 264.44 61.2193C261.66 55.9193 246.25 55.2193 240.54 55.4393L240.31 53.4393L248.63 51.6893V37.1093H243.35V32.9993H238.91V16.2193L239.96 16.2693C240.339 16.3182 240.724 16.2576 241.07 16.0945C241.415 15.9315 241.707 15.6729 241.91 15.3493V11.2493C241.191 10.4906 240.349 9.85839 239.42 9.37927L234.82 6.79927L240.05 7.51927C243.37 7.97927 248.22 12.0993 249.43 13.1693C250.53 13.1693 251.82 13.0493 252.43 12.2893C252.604 12.0218 252.722 11.7213 252.775 11.4065C252.828 11.0917 252.816 10.7693 252.74 10.4593C234.94 -0.820732 216.77 1.81927 209.49 3.57927C211.691 4.63031 213.524 6.32052 214.75 8.42927C220.56 5.35927 230.12 6.42927 230.54 6.42927L231.43 6.52927V12.4693C231.314 12.9931 231.305 13.5348 231.403 14.0622C231.501 14.5896 231.704 15.0919 232 15.5393C232.382 16.0015 232.925 16.3017 233.52 16.3793L234.43 16.4693V32.9993H228.43V34.7393C231.632 34.9444 234.805 35.4738 237.9 36.3193L244.85 38.3193H223.51V52.6593L235.99 54.6593L235.86 56.6593L221.26 57.0793C219.159 57.1134 217.075 57.4502 215.07 58.0793C205.94 61.0793 206.07 67.9293 206.07 68.2193V92.9993C211.396 96.9069 215.004 102.722 216.14 109.229C216.97 114.179 217.03 118.159 216.31 121.049C216.067 121.991 215.549 122.839 214.824 123.487C214.098 124.135 213.197 124.554 212.234 124.69C211.271 124.825 210.289 124.673 209.413 124.251C208.536 123.829 207.805 123.157 207.31 122.319C204.74 118.009 203.66 111.319 204.07 102.399V93.9993C202.538 92.9043 200.911 91.9472 199.21 91.1393C197.604 90.3791 195.872 89.9182 194.1 89.7793C188.59 89.3393 182.92 89.1693 177.46 89.1593L177.63 89.4093C178.32 90.0293 183.3 94.3493 187.97 94.3493H188.13L191.35 94.2793L177.35 104.279C176.79 104.509 163.53 109.859 156.66 101.969C155.504 100.387 154.811 98.5134 154.66 96.5593C152.453 100.192 150.45 103.944 148.66 107.799C147.54 110.609 142.24 113.589 137.09 113.249C134.31 113.059 129.37 111.659 127.56 104.429C127.141 102.986 127.053 101.467 127.303 99.9849C127.552 98.5029 128.132 97.0962 129 95.8693C133.41 89.7793 144.34 88.8693 144.81 88.8693C144.9 88.8693 149.49 88.3593 156.48 87.8693C155.653 87.8918 154.825 87.8684 154 87.7993C153.22 87.7456 152.477 87.4455 151.878 86.9422C151.28 86.439 150.857 85.7586 150.67 84.9993C150.528 84.337 150.602 83.6466 150.881 83.0293C151.16 82.4121 151.629 81.9004 152.22 81.5693C151.738 81.609 151.253 81.5316 150.807 81.3435C150.362 81.1554 149.968 80.8624 149.66 80.4893C148.33 78.9893 147.66 75.6393 149.58 70.7593C150.455 68.5743 151.761 66.5881 153.42 64.9193C151.6 63.0293 148.78 61.8493 145.52 60.4793L145.08 60.2893C140.282 58.0691 135.756 55.3042 131.59 52.0493C130.94 53.3293 129.41 55.5193 125.81 59.3693C123.589 61.6775 122.226 64.6778 121.95 67.8693C121.851 69.0959 121.942 70.3305 122.22 71.5293C129.22 69.8293 138.04 69.0693 145.83 77.1593L145.94 77.2693L146.01 77.4193C146.06 77.5293 147.24 80.0493 145.66 81.9993C143.87 84.2093 139.57 84.4693 132.52 82.7793C132.43 82.7793 123.89 80.8993 120.92 73.9393L118.63 74.5893L117.3 74.9993C113.828 76.0568 110.172 76.3737 106.57 75.9293C110.26 91.1693 122.79 92.4093 126.77 92.4093H126.84L128.03 92.3593L128.17 94.3593H127.35C113.633 94.9616 100.06 97.4138 87 101.649C103.58 99.8393 116.87 102.649 126.61 110.199C140.75 121.079 142.2 137.679 142.29 139.059C142.37 139.516 142.55 139.95 142.818 140.329C143.087 140.708 143.435 141.022 143.84 141.249C146.89 143.029 153.47 141.419 155.74 140.639L179.61 132.129C185.15 130.339 189.26 130.129 191.84 131.629C192.351 131.888 192.805 132.245 193.176 132.681C193.547 133.118 193.827 133.623 194 134.169C194.85 139.579 186.95 142.169 186.61 142.299L147.72 154.549C142.691 155.583 137.564 156.069 132.43 155.999ZM101.19 148.629L129.3 149.769C130.08 149.86 130.87 149.782 131.617 149.54C132.364 149.298 133.051 148.899 133.63 148.369C135.12 146.809 135.5 144.039 134.77 140.149C134.77 139.969 131.65 123.539 117.92 114.149C108.7 107.879 96.83 106.149 82.62 108.969C81.91 109.229 75 111.869 73.93 116.549C73.35 119.039 74.56 121.799 77.52 124.739C77.69 124.909 77.86 125.079 78.04 125.239C79.64 122.239 83.48 118.559 92.63 117.089C111.79 114.019 120.44 127.859 120.53 127.999C123.09 131.589 123.8 134.569 122.61 136.789C120.61 140.509 114.04 140.329 113.76 140.319H113.63C104.96 138.929 92.63 134.739 86.04 132.319C83.5256 131.422 81.1543 130.166 79 128.589C78.6046 131.301 79.2126 134.064 80.71 136.359C82.2489 138.883 84.4297 140.953 87.03 142.359C91.5661 144.828 96.303 146.909 101.19 148.579V148.629ZM113.89 138.359C115.49 138.359 119.69 138.039 120.89 135.879C121.89 134.019 120.36 131.189 118.89 129.139C118.53 128.559 110.78 116.259 92.98 119.139C85.98 120.249 81.41 122.849 79.64 126.639C81.7904 128.308 84.1942 129.621 86.76 130.529C93.22 132.809 105.38 136.939 113.89 138.309V138.359ZM289.7 124.919C287.15 126.369 286.39 127.439 286.53 127.919C287.28 130.769 303.29 132.559 317.7 132.589C332.76 132.439 338.24 129.199 340.19 126.499C340.841 125.597 341.238 124.537 341.34 123.429H306C295.88 122.659 290.27 124.689 289.7 124.919ZM206.11 95.5993V102.469C205.61 113.119 207.44 118.599 209.11 121.329C209.411 121.838 209.858 122.244 210.393 122.494C210.929 122.743 211.527 122.826 212.11 122.729C212.675 122.651 213.203 122.405 213.627 122.023C214.051 121.642 214.352 121.143 214.49 120.589C215.14 117.969 215.08 114.269 214.29 109.589C213.319 104.1 210.418 99.1377 206.11 95.5993ZM156.42 89.9093C149.58 90.3593 145.09 90.8493 144.98 90.9093C144.87 90.9693 134.47 91.7493 130.61 97.0893C129.903 98.094 129.437 99.2481 129.248 100.462C129.059 101.676 129.152 102.917 129.52 104.089C130.95 109.789 134.52 111.209 137.25 111.389C141.63 111.679 146.08 109.049 146.82 107.199C148.51 102.969 154.68 92.8393 154.94 92.4093L156.42 89.9093ZM298.31 102.909C302.098 104.237 306.017 105.155 310 105.649C312.396 105.785 314.799 105.745 317.19 105.529C311.009 103.979 304.679 103.094 298.31 102.889V102.909ZM157.31 89.9093L156.78 92.9993C156.03 97.9993 158.15 100.619 158.24 100.729C163.87 107.189 175.34 102.989 176.55 102.529L185.55 96.0693C180.71 94.9393 176.48 91.0693 176.27 90.8193L176.12 90.6493C175.78 90.1293 175.42 89.6493 175.05 89.1893C168.43 89.2693 162.27 89.5493 157.26 89.8593L157.31 89.9093ZM169.84 84.7093C166.541 86.298 163.004 87.3351 159.37 87.7793C163.48 87.5493 168.21 87.3593 173.24 87.2793C172.192 86.2796 171.034 85.4008 169.79 84.6593L169.84 84.7093ZM159.84 81.7093C158.404 81.7077 156.975 81.9166 155.6 82.3293C154.41 82.6893 152.46 83.4793 152.71 84.6493C152.815 84.9909 153.023 85.2917 153.306 85.5101C153.589 85.7286 153.933 85.8541 154.29 85.8693C158.848 86.1748 163.412 85.3683 167.59 83.5193C166.151 82.865 164.65 82.3558 163.11 81.9993C162.006 81.759 160.879 81.6416 159.75 81.6493L159.84 81.7093ZM159.84 79.7093C161.115 79.7094 162.386 79.8503 163.63 80.1293C165.825 80.6087 167.945 81.3859 169.93 82.4393C173.03 80.9201 175.824 78.8419 178.17 76.3093C180.898 73.3355 184.588 71.4197 188.59 70.8993C187.591 70.2405 186.701 69.4308 185.95 68.4993C177.88 60.2393 165.95 61.0393 165.8 61.0493C162.311 61.6296 159.024 63.0772 156.24 65.2593C157.64 67.5093 158.15 70.5293 157.24 74.8993C156.908 77.0208 155.963 78.9987 154.52 80.5893L155.04 80.4193C156.565 79.9376 158.151 79.6783 159.75 79.6493L159.84 79.7093ZM122.96 73.5093C125.58 79.2593 132.67 80.8293 133.05 80.9093C141.43 82.9093 143.64 81.5093 144.2 80.8193C144.412 80.4721 144.536 80.0787 144.562 79.6728C144.589 79.2669 144.516 78.8607 144.35 78.4893C137.27 71.2793 129.43 71.8593 122.87 73.4493L122.96 73.5093ZM154.73 66.6393C153.357 68.0657 152.27 69.7428 151.53 71.5793C150.01 75.3693 150.29 78.1593 151.25 79.2493C151.367 79.4099 151.53 79.5318 151.717 79.5995C151.904 79.6672 152.107 79.6775 152.3 79.6293C153.21 79.3893 154.53 77.8993 155.3 74.4793C156.07 71.0593 155.65 68.4393 154.64 66.5793L154.73 66.6393Z" fill="#DEAB98"/>
</svg>
