<svg width="121" height="80" viewBox="0 0 121 80" fill="none" xmlns="http://www.w3.org/2000/svg">
<mask id="path-1-outside-1_738_8" maskUnits="userSpaceOnUse" x="-1.40007" y="-33.3918" width="142.395" height="140.137" fill="black">
<rect fill="white" x="-1.40007" y="-33.3918" width="142.395" height="140.137"/>
<path class="path" d="M98.7429 74.8798L99.0483 74.6676C103.037 71.7628 105.517 67.2774 106.427 61.3291C107.047 57.2594 106.162 53.2335 103.937 49.9914C103.63 49.5428 103.298 49.1116 102.942 48.6999C104.234 47.3599 105.725 44.8411 106.985 40.1286L106.991 40.095C106.992 40.0576 107.187 36.3116 112.265 32.6383C114.525 31.0282 116.414 28.9533 117.806 26.5527C119.656 23.3244 120.164 20.2963 119.313 17.5517C118.327 14.4015 115.534 11.6911 111.013 9.51714C110.923 9.47481 108.806 8.50973 104.562 8.80918C100.665 9.08305 94.1668 10.5346 85.3351 15.8927C82.5309 17.5956 79.601 19.2903 76.7677 20.9301C63.9974 28.3312 50.8379 35.9437 43.5763 47.1426C39.5555 16.3974 54.1739 6.15626 58.8211 3.72401C59.6327 3.29981 60.3689 2.89377 61.0662 2.47063C62.4032 1.67172 63.4596 1.50829 64.207 1.98532C66.01 3.13649 65.5612 7.62113 65.553 7.65865L65.7966 24.776L66.0993 24.7714L65.8535 7.68248C65.8719 7.50815 66.3233 2.98498 64.3634 1.73475C63.5127 1.18998 62.3509 1.3532 60.9069 2.21659C60.2144 2.62905 59.4833 3.03889 58.6766 3.45966C53.9725 5.9192 39.1129 16.3132 43.3184 47.5395C42.4477 48.9146 41.6704 50.3465 40.9917 51.8257C40.9199 51.9832 40.8527 52.1401 40.787 52.2958C40.0966 51.3558 39.4059 50.3671 38.7147 49.3297C38.6837 49.2851 36.1227 45.6647 32.947 45.8953C31.8355 45.0908 30.679 44.3504 29.4831 43.6778L11.1201 31.7782L4.97283 27.5084C4.18026 26.9514 3.25916 26.605 2.29599 26.5016C1.40388 26.4188 0.847639 26.5799 0.627283 26.9851C0.321223 27.5452 0.707231 28.4886 1.80701 29.8712C5.55662 34.5898 9.62306 33.4004 9.66297 33.3874L9.57329 33.0997C9.53504 33.1115 5.65692 34.2338 2.04155 29.6838C0.794911 28.1144 0.722809 27.4327 0.891574 27.1295C1.08656 26.7689 1.74485 26.7547 2.26161 26.8045C3.1716 26.9058 4.04085 27.237 4.7876 27.7668L10.9371 32.0398L29.3303 43.9405C30.4258 44.5579 31.4889 45.2312 32.5154 45.9576C32.1295 46.03 31.7554 46.1555 31.4039 46.3306C29.1572 47.4407 28.1948 50.1675 29.222 52.5379C30.1519 54.6944 31.9157 57.1846 35.03 56.7985C35.8861 56.6998 36.6778 56.2955 37.2597 55.6598C37.8416 55.0241 38.1745 54.1998 38.1972 53.3383C38.2165 51.6606 37.2917 49.1873 33.3464 46.1955C36.1811 46.2703 38.443 49.467 38.4705 49.5066C39.1965 50.5965 39.9266 51.6395 40.6608 52.6356C40.0955 54.0344 39.8127 55.5313 39.8288 57.0399C39.8449 58.5485 40.1596 60.039 40.7547 61.4254C44.6713 70.7859 59.7568 76.9023 64.2889 78.5541C64.8038 78.749 65.3551 78.8292 65.9042 78.789C66.4533 78.7488 66.987 78.5891 67.468 78.3212C68.1598 77.9288 68.5138 77.4236 68.5217 76.8184C68.5395 75.4942 66.8289 73.782 63.4368 71.7276C62.6594 71.2567 61.8131 70.7994 60.8462 70.3305C58.2536 69.0644 49.6363 64.2512 40.9971 52.5807C41.0812 52.3705 41.1709 52.1614 41.2667 51.9504C41.889 50.5934 42.5952 49.2764 43.3814 48.0073C43.4174 48.2564 43.4517 48.5067 43.49 48.7591L43.5059 48.8068C43.5484 48.8679 47.1002 55.4126 53.7595 62.2661C59.9081 68.5957 70.0368 76.4979 83.3643 78.2013C83.4459 78.2131 92.0331 79.54 98.7429 74.8798ZM102.72 48.9127C103.062 49.312 103.382 49.7294 103.679 50.1631C105.862 53.3412 106.728 57.29 106.122 61.2842C105.229 67.1446 102.79 71.5623 98.8707 74.419C92.2213 79.2649 83.495 77.9172 83.4082 77.9015C70.1636 76.2116 60.0959 68.3552 53.981 62.0634C47.5469 55.4426 44.0138 49.1222 43.7847 48.6866C43.731 48.3274 43.6795 47.9643 43.6309 47.6089C50.8197 36.3015 64.0656 28.6338 76.9232 21.1893C79.7565 19.5494 82.6836 17.8542 85.4955 16.1484C94.2545 10.8335 100.692 9.38979 104.554 9.11101C108.73 8.81231 110.863 9.78041 110.88 9.78344C115.326 11.9281 118.069 14.5804 119.016 17.6427C119.841 20.303 119.338 23.2441 117.535 26.4028C116.165 28.7665 114.304 30.8097 112.079 32.3953C107 36.0698 106.697 39.7431 106.677 40.063C105.435 44.7022 103.966 47.157 102.71 48.4473C100.28 45.7936 97.3544 44.9643 94.1688 46.0583L94.1375 46.0801C94.0797 46.1202 92.6695 47.0605 92.9508 48.0962C93.265 49.2535 95.5881 49.9553 99.8571 50.1818C100.012 50.2112 101.209 50.359 102.72 48.9127ZM40.8691 52.9143C49.5134 64.5324 58.1087 69.3315 60.7147 70.6029C61.6721 71.0687 62.5122 71.5205 63.2805 71.9854C67.3835 74.4713 68.2304 75.983 68.2206 76.8146C68.2154 77.3077 67.9099 77.7206 67.3186 78.0603C66.8752 78.306 66.3835 78.4521 65.8778 78.4885C65.3721 78.5248 64.8646 78.4504 64.3906 78.2705C59.8899 76.6287 44.9017 70.5573 41.0329 61.308C39.8831 58.6391 39.8243 55.6261 40.8691 52.9143ZM102.504 48.6687C101.041 50.0616 99.9246 49.8877 99.9006 49.8849L99.8821 49.883C94.7373 49.6113 93.4305 48.72 93.2392 48.0182C93.03 47.2482 94.1262 46.455 94.2814 46.3472C97.3968 45.2897 100.153 46.0726 102.504 48.6687ZM32.8682 46.2118C36.9668 49.2269 37.9148 51.6842 37.896 53.3346C37.8744 54.1232 37.5689 54.8775 37.0355 55.4588C36.5022 56.0402 35.7769 56.4094 34.993 56.4986C32.0646 56.8634 30.3898 54.4802 29.4991 52.4189C28.5383 50.1933 29.4331 47.6407 31.5345 46.5997C31.9522 46.3913 32.404 46.2599 32.8682 46.2118Z"/>
</mask>
<path class="path" d="M98.7429 74.8798L99.0483 74.6676C103.037 71.7628 105.517 67.2774 106.427 61.3291C107.047 57.2594 106.162 53.2335 103.937 49.9914C103.63 49.5428 103.298 49.1116 102.942 48.6999C104.234 47.3599 105.725 44.8411 106.985 40.1286L106.991 40.095C106.992 40.0576 107.187 36.3116 112.265 32.6383C114.525 31.0282 116.414 28.9533 117.806 26.5527C119.656 23.3244 120.164 20.2963 119.313 17.5517C118.327 14.4015 115.534 11.6911 111.013 9.51714C110.923 9.47481 108.806 8.50973 104.562 8.80918C100.665 9.08305 94.1668 10.5346 85.3351 15.8927C82.5309 17.5956 79.601 19.2903 76.7677 20.9301C63.9974 28.3312 50.8379 35.9437 43.5763 47.1426C39.5555 16.3974 54.1739 6.15626 58.8211 3.72401C59.6327 3.29981 60.3689 2.89377 61.0662 2.47063C62.4032 1.67172 63.4596 1.50829 64.207 1.98532C66.01 3.13649 65.5612 7.62113 65.553 7.65865L65.7966 24.776L66.0993 24.7714L65.8535 7.68248C65.8719 7.50815 66.3233 2.98498 64.3634 1.73475C63.5127 1.18998 62.3509 1.3532 60.9069 2.21659C60.2144 2.62905 59.4833 3.03889 58.6766 3.45966C53.9725 5.9192 39.1129 16.3132 43.3184 47.5395C42.4477 48.9146 41.6704 50.3465 40.9917 51.8257C40.9199 51.9832 40.8527 52.1401 40.787 52.2958C40.0966 51.3558 39.4059 50.3671 38.7147 49.3297C38.6837 49.2851 36.1227 45.6647 32.947 45.8953C31.8355 45.0908 30.679 44.3504 29.4831 43.6778L11.1201 31.7782L4.97283 27.5084C4.18026 26.9514 3.25916 26.605 2.29599 26.5016C1.40388 26.4188 0.847639 26.5799 0.627283 26.9851C0.321223 27.5452 0.707231 28.4886 1.80701 29.8712C5.55662 34.5898 9.62306 33.4004 9.66297 33.3874L9.57329 33.0997C9.53504 33.1115 5.65692 34.2338 2.04155 29.6838C0.794911 28.1144 0.722809 27.4327 0.891574 27.1295C1.08656 26.7689 1.74485 26.7547 2.26161 26.8045C3.1716 26.9058 4.04085 27.237 4.7876 27.7668L10.9371 32.0398L29.3303 43.9405C30.4258 44.5579 31.4889 45.2312 32.5154 45.9576C32.1295 46.03 31.7554 46.1555 31.4039 46.3306C29.1572 47.4407 28.1948 50.1675 29.222 52.5379C30.1519 54.6944 31.9157 57.1846 35.03 56.7985C35.8861 56.6998 36.6778 56.2955 37.2597 55.6598C37.8416 55.0241 38.1745 54.1998 38.1972 53.3383C38.2165 51.6606 37.2917 49.1873 33.3464 46.1955C36.1811 46.2703 38.443 49.467 38.4705 49.5066C39.1965 50.5965 39.9266 51.6395 40.6608 52.6356C40.0955 54.0344 39.8127 55.5313 39.8288 57.0399C39.8449 58.5485 40.1596 60.039 40.7547 61.4254C44.6713 70.7859 59.7568 76.9023 64.2889 78.5541C64.8038 78.749 65.3551 78.8292 65.9042 78.789C66.4533 78.7488 66.987 78.5891 67.468 78.3212C68.1598 77.9288 68.5138 77.4236 68.5217 76.8184C68.5395 75.4942 66.8289 73.782 63.4368 71.7276C62.6594 71.2567 61.8131 70.7994 60.8462 70.3305C58.2536 69.0644 49.6363 64.2512 40.9971 52.5807C41.0812 52.3705 41.1709 52.1614 41.2667 51.9504C41.889 50.5934 42.5952 49.2764 43.3814 48.0073C43.4174 48.2564 43.4517 48.5067 43.49 48.7591L43.5059 48.8068C43.5484 48.8679 47.1002 55.4126 53.7595 62.2661C59.9081 68.5957 70.0368 76.4979 83.3643 78.2013C83.4459 78.2131 92.0331 79.54 98.7429 74.8798ZM102.72 48.9127C103.062 49.312 103.382 49.7294 103.679 50.1631C105.862 53.3412 106.728 57.29 106.122 61.2842C105.229 67.1446 102.79 71.5623 98.8707 74.419C92.2213 79.2649 83.495 77.9172 83.4082 77.9015C70.1636 76.2116 60.0959 68.3552 53.981 62.0634C47.5469 55.4426 44.0138 49.1222 43.7847 48.6866C43.731 48.3274 43.6795 47.9643 43.6309 47.6089C50.8197 36.3015 64.0656 28.6338 76.9232 21.1893C79.7565 19.5494 82.6836 17.8542 85.4955 16.1484C94.2545 10.8335 100.692 9.38979 104.554 9.11101C108.73 8.81231 110.863 9.78041 110.88 9.78344C115.326 11.9281 118.069 14.5804 119.016 17.6427C119.841 20.303 119.338 23.2441 117.535 26.4028C116.165 28.7665 114.304 30.8097 112.079 32.3953C107 36.0698 106.697 39.7431 106.677 40.063C105.435 44.7022 103.966 47.157 102.71 48.4473C100.28 45.7936 97.3544 44.9643 94.1688 46.0583L94.1375 46.0801C94.0797 46.1202 92.6695 47.0605 92.9508 48.0962C93.265 49.2535 95.5881 49.9553 99.8571 50.1818C100.012 50.2112 101.209 50.359 102.72 48.9127ZM40.8691 52.9143C49.5134 64.5324 58.1087 69.3315 60.7147 70.6029C61.6721 71.0687 62.5122 71.5205 63.2805 71.9854C67.3835 74.4713 68.2304 75.983 68.2206 76.8146C68.2154 77.3077 67.9099 77.7206 67.3186 78.0603C66.8752 78.306 66.3835 78.4521 65.8778 78.4885C65.3721 78.5248 64.8646 78.4504 64.3906 78.2705C59.8899 76.6287 44.9017 70.5573 41.0329 61.308C39.8831 58.6391 39.8243 55.6261 40.8691 52.9143ZM102.504 48.6687C101.041 50.0616 99.9246 49.8877 99.9006 49.8849L99.8821 49.883C94.7373 49.6113 93.4305 48.72 93.2392 48.0182C93.03 47.2482 94.1262 46.455 94.2814 46.3472C97.3968 45.2897 100.153 46.0726 102.504 48.6687ZM32.8682 46.2118C36.9668 49.2269 37.9148 51.6842 37.896 53.3346C37.8744 54.1232 37.5689 54.8775 37.0355 55.4588C36.5022 56.0402 35.7769 56.4094 34.993 56.4986C32.0646 56.8634 30.3898 54.4802 29.4991 52.4189C28.5383 50.1933 29.4331 47.6407 31.5345 46.5997C31.9522 46.3913 32.404 46.2599 32.8682 46.2118Z" fill="#DEAB98"/>
<path class="path" d="M98.7429 74.8798L99.0483 74.6676C103.037 71.7628 105.517 67.2774 106.427 61.3291C107.047 57.2594 106.162 53.2335 103.937 49.9914C103.63 49.5428 103.298 49.1116 102.942 48.6999C104.234 47.3599 105.725 44.8411 106.985 40.1286L106.991 40.095C106.992 40.0576 107.187 36.3116 112.265 32.6383C114.525 31.0282 116.414 28.9533 117.806 26.5527C119.656 23.3244 120.164 20.2963 119.313 17.5517C118.327 14.4015 115.534 11.6911 111.013 9.51714C110.923 9.47481 108.806 8.50973 104.562 8.80918C100.665 9.08305 94.1668 10.5346 85.3351 15.8927C82.5309 17.5956 79.601 19.2903 76.7677 20.9301C63.9974 28.3312 50.8379 35.9437 43.5763 47.1426C39.5555 16.3974 54.1739 6.15626 58.8211 3.72401C59.6327 3.29981 60.3689 2.89377 61.0662 2.47063C62.4032 1.67172 63.4596 1.50829 64.207 1.98532C66.01 3.13649 65.5612 7.62113 65.553 7.65865L65.7966 24.776L66.0993 24.7714L65.8535 7.68248C65.8719 7.50815 66.3233 2.98498 64.3634 1.73475C63.5127 1.18998 62.3509 1.3532 60.9069 2.21659C60.2144 2.62905 59.4833 3.03889 58.6766 3.45966C53.9725 5.9192 39.1129 16.3132 43.3184 47.5395C42.4477 48.9146 41.6704 50.3465 40.9917 51.8257C40.9199 51.9832 40.8527 52.1401 40.787 52.2958C40.0966 51.3558 39.4059 50.3671 38.7147 49.3297C38.6837 49.2851 36.1227 45.6647 32.947 45.8953C31.8355 45.0908 30.679 44.3504 29.4831 43.6778L11.1201 31.7782L4.97283 27.5084C4.18026 26.9514 3.25916 26.605 2.29599 26.5016C1.40388 26.4188 0.847639 26.5799 0.627283 26.9851C0.321223 27.5452 0.707231 28.4886 1.80701 29.8712C5.55662 34.5898 9.62306 33.4004 9.66297 33.3874L9.57329 33.0997C9.53504 33.1115 5.65692 34.2338 2.04155 29.6838C0.794911 28.1144 0.722809 27.4327 0.891574 27.1295C1.08656 26.7689 1.74485 26.7547 2.26161 26.8045C3.1716 26.9058 4.04085 27.237 4.7876 27.7668L10.9371 32.0398L29.3303 43.9405C30.4258 44.5579 31.4889 45.2312 32.5154 45.9576C32.1295 46.03 31.7554 46.1555 31.4039 46.3306C29.1572 47.4407 28.1948 50.1675 29.222 52.5379C30.1519 54.6944 31.9157 57.1846 35.03 56.7985C35.8861 56.6998 36.6778 56.2955 37.2597 55.6598C37.8416 55.0241 38.1745 54.1998 38.1972 53.3383C38.2165 51.6606 37.2917 49.1873 33.3464 46.1955C36.1811 46.2703 38.443 49.467 38.4705 49.5066C39.1965 50.5965 39.9266 51.6395 40.6608 52.6356C40.0955 54.0344 39.8127 55.5313 39.8288 57.0399C39.8449 58.5485 40.1596 60.039 40.7547 61.4254C44.6713 70.7859 59.7568 76.9023 64.2889 78.5541C64.8038 78.749 65.3551 78.8292 65.9042 78.789C66.4533 78.7488 66.987 78.5891 67.468 78.3212C68.1598 77.9288 68.5138 77.4236 68.5217 76.8184C68.5395 75.4942 66.8289 73.782 63.4368 71.7276C62.6594 71.2567 61.8131 70.7994 60.8462 70.3305C58.2536 69.0644 49.6363 64.2512 40.9971 52.5807C41.0812 52.3705 41.1709 52.1614 41.2667 51.9504C41.889 50.5934 42.5952 49.2764 43.3814 48.0073C43.4174 48.2564 43.4517 48.5067 43.49 48.7591L43.5059 48.8068C43.5484 48.8679 47.1002 55.4126 53.7595 62.2661C59.9081 68.5957 70.0368 76.4979 83.3643 78.2013C83.4459 78.2131 92.0331 79.54 98.7429 74.8798ZM102.72 48.9127C103.062 49.312 103.382 49.7294 103.679 50.1631C105.862 53.3412 106.728 57.29 106.122 61.2842C105.229 67.1446 102.79 71.5623 98.8707 74.419C92.2213 79.2649 83.495 77.9172 83.4082 77.9015C70.1636 76.2116 60.0959 68.3552 53.981 62.0634C47.5469 55.4426 44.0138 49.1222 43.7847 48.6866C43.731 48.3274 43.6795 47.9643 43.6309 47.6089C50.8197 36.3015 64.0656 28.6338 76.9232 21.1893C79.7565 19.5494 82.6836 17.8542 85.4955 16.1484C94.2545 10.8335 100.692 9.38979 104.554 9.11101C108.73 8.81231 110.863 9.78041 110.88 9.78344C115.326 11.9281 118.069 14.5804 119.016 17.6427C119.841 20.303 119.338 23.2441 117.535 26.4028C116.165 28.7665 114.304 30.8097 112.079 32.3953C107 36.0698 106.697 39.7431 106.677 40.063C105.435 44.7022 103.966 47.157 102.71 48.4473C100.28 45.7936 97.3544 44.9643 94.1688 46.0583L94.1375 46.0801C94.0797 46.1202 92.6695 47.0605 92.9508 48.0962C93.265 49.2535 95.5881 49.9553 99.8571 50.1818C100.012 50.2112 101.209 50.359 102.72 48.9127ZM40.8691 52.9143C49.5134 64.5324 58.1087 69.3315 60.7147 70.6029C61.6721 71.0687 62.5122 71.5205 63.2805 71.9854C67.3835 74.4713 68.2304 75.983 68.2206 76.8146C68.2154 77.3077 67.9099 77.7206 67.3186 78.0603C66.8752 78.306 66.3835 78.4521 65.8778 78.4885C65.3721 78.5248 64.8646 78.4504 64.3906 78.2705C59.8899 76.6287 44.9017 70.5573 41.0329 61.308C39.8831 58.6391 39.8243 55.6261 40.8691 52.9143ZM102.504 48.6687C101.041 50.0616 99.9246 49.8877 99.9006 49.8849L99.8821 49.883C94.7373 49.6113 93.4305 48.72 93.2392 48.0182C93.03 47.2482 94.1262 46.455 94.2814 46.3472C97.3968 45.2897 100.153 46.0726 102.504 48.6687ZM32.8682 46.2118C36.9668 49.2269 37.9148 51.6842 37.896 53.3346C37.8744 54.1232 37.5689 54.8775 37.0355 55.4588C36.5022 56.0402 35.7769 56.4094 34.993 56.4986C32.0646 56.8634 30.3898 54.4802 29.4991 52.4189C28.5383 50.1933 29.4331 47.6407 31.5345 46.5997C31.9522 46.3913 32.404 46.2599 32.8682 46.2118Z" stroke="#DEAB98" mask="url(#path-1-outside-1_738_8)"/>
</svg>
