<svg width="251" height="283" viewBox="0 0 251 283" fill="none" xmlns="http://www.w3.org/2000/svg">
<path d="M148.218 72.8777C148.218 72.8777 185.948 45.3888 226.891 51.0891C226.891 51.0891 241.155 52.0914 247.689 54.0841C247.689 54.0841 208.075 61.2102 187.845 67.1888C187.845 67.1888 147.3 78.4576 133.218 84.9554C133.218 84.9554 161.347 77.0202 174.547 78.0708C187.748 79.1215 211.928 72.1646 222.954 67.5629C222.954 67.5629 202.488 90.4994 164.937 88.053C163.097 87.9348 161.245 87.9036 159.4 87.9298L129.01 88.5415C129.01 88.5415 116.739 92.7204 112.404 99.2545C112.404 99.2545 129.107 95.3532 150.156 99.0025C171.205 102.652 186.751 100.427 196.401 98.3378C196.401 98.3378 163.357 114.111 128.549 109.836C128.549 109.836 101.908 108.909 90.8311 112.989L83.0774 122.82C83.0774 122.82 93.0051 113.955 111.713 119.015C111.713 119.015 148.574 128.629 160.301 125.38L187.198 118.459C187.198 118.459 163.792 142.421 127.535 136.721C127.535 136.721 88.1621 128.074 83.4518 127.542C81.29 127.299 79.1033 127.664 77.1372 128.595C75.1712 129.527 73.5038 130.988 72.3224 132.814L56.1084 152.749C56.1084 152.749 69.9734 144.983 83.144 148.298C83.144 148.298 104.648 155.707 114.781 161.903C114.781 161.903 131.304 169.246 134.277 169.634C137.25 170.023 140.436 171.591 143.782 170.214C147.127 168.837 155.485 165.262 155.485 165.262C155.485 165.262 161.928 159.99 148.305 161.355C134.681 162.72 128.981 166.174 106.631 167.11C90.7989 167.77 74.315 164.978 66.0444 163.293C62.1125 162.483 58.1171 162.019 54.1041 161.908L49.8569 161.799L43.9088 175.622C43.9088 175.622 55.8514 160.515 70.3707 172.023C70.3707 172.023 80.4857 178.406 94.5985 195.417C108.711 212.428 107.518 214.479 116.61 222.187C122.08 226.813 127.142 231.901 131.741 237.394C131.741 237.394 107.457 227.209 89.1497 215.927C77.5736 208.68 66.7631 200.278 56.8843 190.848C56.8843 190.848 47.8562 182.605 45.0884 179.704C45.0884 179.704 39.9152 181.874 39.1222 190.2C39.1222 190.2 52.4981 192.174 62.3013 218.833C62.3013 218.833 72.4567 241.332 74.2564 255.539C75.2922 264.411 75.0727 273.384 73.6045 282.194C73.6045 282.194 72.1832 267.721 60.8986 249.863C49.6139 232.004 37.7999 210.895 35.7164 199.62L34.1786 205.619L16.7564 177.895L18.6525 165.721C18.6525 165.721 26.7606 174.618 32.1575 193.569C32.1575 193.569 33.3833 188.322 29.7217 177.474C26.0601 166.626 11.8525 131.718 11.8525 131.718C11.8525 131.718 -1.78336 101.186 2.29673 88.833C2.29673 88.833 9.83892 60.8794 35.6909 52.6483C35.6909 52.6483 10.8169 76.9723 18.2152 109.055C18.4451 110.063 18.6751 111.071 18.8543 112.083C20.0586 118.807 25.0922 146.557 28.8378 160.181C33.1134 175.749 36.0363 188.503 36.0363 188.503C36.0363 188.503 37.2018 188.956 37.5822 186.196C37.9627 183.436 40.239 149.758 40.239 149.758C40.239 149.758 41.3801 130.935 39.4175 123.489C37.4548 116.043 36.4683 100.202 36.4683 100.202C36.4683 100.202 34.4754 83.3052 41.0395 76.0043L52.0843 63.0147C52.0843 63.0147 58.0143 55.2367 57.9519 52.4971C57.8894 49.7575 54.4675 47.8896 51.2952 55.8085C48.1228 63.7273 49.774 70.91 50.7404 85.1373L55.4508 105.585C55.4508 105.585 60.8436 120.543 54.503 133.345L40.3122 176.112C40.3122 176.112 51.0731 151.606 62.5104 139.637C73.9478 127.668 86.9733 112.565 86.9733 112.565C86.9733 112.565 90.6509 103.851 88.7425 95.8438C87.7938 88.2994 86.3585 80.8243 84.4457 73.4651C82.3806 65.9958 82.1141 58.1435 83.668 50.5514C84.8989 44.731 87.3214 38.5724 92.0739 33.9809C92.0739 33.9809 98.0683 25.6674 112.799 18.9804L134.858 10.4957C134.858 10.4957 144.895 4.02199 134.085 4.03417C134.085 4.03417 102.696 10.5201 99.7855 49.579C99.7855 49.579 98.3605 59.229 101.833 75.2861C105.305 91.3432 95.3234 103.113 95.3234 103.113C95.3234 103.113 111.996 93.2756 116.392 71.6687C116.392 71.6687 120.97 52.876 119.261 41.6378C119.261 41.6378 116.639 14.4392 110.182 2.41397C110.182 2.41397 126.1 9.35844 129.615 35.1319C133.13 60.9055 120.014 88.6598 120.014 88.6598C120.014 88.6598 129.332 83.3637 139 78.744C139 78.744 150.6 24.0868 198.028 16.6587L207.932 15.4629C207.932 15.4629 183.4 20.9559 148.218 72.8777Z" stroke="#DEAB98" stroke-width="1.5" stroke-miterlimit="10"/>
</svg>
