<?xml version="1.0" encoding="UTF-8"?> <svg xmlns="http://www.w3.org/2000/svg" width="36" height="37" viewBox="0 0 36 37" fill="none"><path d="M20.7614 27.6195H16.5793C15.5707 27.6195 14.5621 27.6195 13.5549 27.6195C13.0527 27.6195 12.6448 27.4475 12.6659 26.8652C12.6856 26.3168 13.0879 26.2054 13.5606 26.2054C15.8352 26.2054 18.1098 26.1956 20.383 26.2167C20.8571 26.2167 21.1019 26.1067 21.3101 25.6246C22.5184 22.8331 24.6439 21.2287 27.674 20.8565C27.8568 20.8354 28.0383 20.7987 28.2437 20.7649V10.0601H1.44749V26.2054H2.20289C3.79808 26.2054 5.39187 26.2054 6.98566 26.2054C7.47378 26.2054 7.84937 26.3774 7.84656 26.9103C7.84374 27.4432 7.45972 27.6152 6.98144 27.6223C4.96564 27.6223 2.94844 27.6308 0.93264 27.6223C0.216631 27.6223 0.0014067 27.3713 0 26.6143C0 23.7702 0 20.927 0 18.0848C0 13.3854 0 8.68601 0 3.9866C0 3.07585 0.199751 2.87566 1.11551 2.87284C2.5419 2.87284 3.9697 2.87284 5.48471 2.87284C5.45658 1.90006 5.58177 0.966758 6.46096 0.449353C6.89868 0.187121 7.39991 0.0505595 7.90986 0.0546023C9.15338 0.109585 9.78639 1.02597 9.89049 2.79812H13.2004C13.4818 0.824366 14.1289 0.0264058 15.4512 0.0235862C16.7735 0.0207666 17.3727 0.769383 17.7019 2.81786H20.957C21.379 0.7144 21.9782 -0.0102496 23.2794 0.0235862C24.5806 0.057422 25.2291 0.86948 25.4711 2.86297C26.4839 2.86297 27.5094 2.86297 28.5349 2.86297C29.4998 2.86297 29.6841 3.04907 29.6841 4.01339C29.6841 9.37072 29.6841 14.728 29.6841 20.0854V20.8439C34.9508 21.8843 37.549 27.573 35.0296 32.3015C35.1562 32.3523 35.3236 32.3663 35.3897 32.4566C35.5557 32.6822 35.792 32.9486 35.7807 33.1883C35.7709 33.3885 35.4741 33.6972 35.2617 33.7395C34.6452 33.88 34.0118 33.9308 33.3809 33.8904C33.1249 33.8636 32.7226 33.4308 32.7113 33.1685C32.6804 32.4481 32.0361 31.6177 32.852 31.0214C33.0602 30.8677 33.5357 31.082 33.9563 31.1356C35.1815 29.2055 34.7285 26.0898 32.8309 24.1372C31.8173 23.0736 30.4575 22.4085 28.9972 22.2622C27.537 22.1159 26.0727 22.4979 24.869 23.3392C23.6527 24.1727 22.772 25.4126 22.3844 26.8373C21.9969 28.262 22.1279 29.7784 22.7539 31.1152C23.38 32.452 24.4602 33.5218 25.8013 34.1333C27.1425 34.7449 28.6569 34.8581 30.0738 34.4529C30.9614 34.2005 31.4031 34.295 31.4805 34.8039C31.5972 35.6104 30.9319 35.6837 30.4044 35.8289C29.248 36.1486 28.0326 36.1901 26.8571 35.9501C25.6817 35.7102 24.5794 35.1955 23.6399 34.4479C22.7004 33.7003 21.9503 32.741 21.4506 31.6481C20.9509 30.5551 20.7158 29.3593 20.7643 28.158C20.7657 28.0185 20.7614 27.8775 20.7614 27.6195ZM1.45734 4.29958V8.55584H28.2282V4.32637H22.4607V5.62904C22.4607 6.12812 22.4002 6.62861 21.7574 6.64271C21.1145 6.65681 21.0386 6.16901 21.0428 5.65583C21.0428 5.21738 21.0428 4.77892 21.0428 4.33201H14.6719C14.6719 4.85223 14.6719 5.31888 14.6719 5.78413C14.6719 6.24937 14.5199 6.64412 13.9685 6.64271C13.4171 6.6413 13.2652 6.24937 13.2652 5.7799C13.2652 5.31042 13.2652 4.81417 13.2652 4.33906H6.9097C6.9097 4.848 6.9097 5.29351 6.9097 5.7376C6.91954 6.24655 6.77606 6.6554 6.18806 6.63989C5.65352 6.62438 5.50019 6.23245 5.49878 5.75875V4.29958H1.45734ZM8.64556 2.82632C8.4008 2.30609 8.27138 1.87891 8.01114 1.55747C7.91689 1.43905 7.37813 1.47288 7.27684 1.61105C7.04474 1.92685 6.95612 2.34839 6.77043 2.82773L8.64556 2.82632ZM14.7112 2.81504H16.1742C16.253 1.86623 16.0335 1.45033 15.4709 1.44046C14.9082 1.43059 14.6536 1.862 14.7112 2.81504V2.81504ZM22.5043 2.80235H23.9532C24.0208 1.86341 23.7746 1.43482 23.2119 1.44046C22.6492 1.4461 22.4228 1.86623 22.5043 2.80235Z" fill="#395D64"></path><path d="M6.32725 19.7161C7.00106 19.7161 7.49059 19.7076 7.98153 19.7161C8.42182 19.726 8.75802 19.9755 8.68488 20.3999C8.63423 20.6649 8.28819 21.054 8.05186 21.0723C7.04946 21.1457 6.04328 21.1513 5.04012 21.0893C4.30442 21.0441 4.05544 20.4534 4.4887 19.8289C5.11186 18.9224 5.78708 18.0511 6.4215 17.1502C6.63901 16.8463 6.82384 16.5203 6.97293 16.1774C7.02014 16.0879 7.0478 15.9894 7.05407 15.8883C7.06033 15.7872 7.04506 15.686 7.00926 15.5913C6.97347 15.4966 6.91797 15.4107 6.84646 15.3391C6.77495 15.2676 6.68907 15.2121 6.59452 15.1765C6.14579 14.9664 5.77583 15.1257 5.52965 15.5557C5.50099 15.6195 5.47747 15.6855 5.45932 15.7531C5.28911 16.1972 4.96838 16.3945 4.51965 16.2282C4.07091 16.0618 4.01183 15.6643 4.13562 15.2413C4.30988 14.6879 4.69202 14.224 5.20127 13.9478C5.71052 13.6715 6.30699 13.6046 6.86461 13.761C8.06312 14.1205 8.78053 15.3752 8.32476 16.5172C8.03498 17.2447 7.55389 17.8988 7.13892 18.5727C6.92228 18.9294 6.66205 19.2537 6.32725 19.7161Z" fill="#395D64"></path><path d="M14.8213 21.849C14.9296 21.584 14.9802 21.4261 15.0548 21.2851C16.5178 18.4805 17.9821 15.6773 19.4479 12.8755C19.5126 12.7514 19.5717 12.5695 19.6758 12.5315C19.9389 12.4356 20.2877 12.2862 20.4861 12.3905C20.6844 12.4948 20.7787 12.8614 20.8448 13.1307C20.8757 13.2589 20.7491 13.4352 20.6732 13.5804C19.2214 16.3634 17.7679 19.1459 16.3124 21.928C16.2477 22.052 16.1914 22.2367 16.0887 22.2734C15.8257 22.3664 15.5078 22.4905 15.27 22.4143C15.0689 22.3467 14.9493 22.0224 14.8213 21.849Z" fill="#395D64"></path><path d="M24.2895 15.1172C23.5693 15.1172 22.9433 15.1073 22.3201 15.1172C21.8292 15.1284 21.4578 14.948 21.4451 14.432C21.4325 13.916 21.7926 13.7031 22.2892 13.7031C23.295 13.7031 24.3007 13.6834 25.3051 13.7031C25.9522 13.72 26.2645 14.1613 26.0085 14.7492C25.1771 16.7187 24.312 18.6657 23.4469 20.6056C23.2528 21.0427 22.8758 21.1794 22.4622 20.9707C22.0486 20.7621 22.0036 20.4068 22.1808 20.0093C22.7829 18.638 23.3826 17.2657 23.98 15.8926C24.0771 15.6712 24.1629 15.4344 24.2895 15.1172Z" fill="#395D64"></path><path d="M27.6865 27.9816C27.6865 26.6873 27.6865 25.496 27.6865 24.3033C27.6865 23.7648 27.9454 23.3785 28.4771 23.5096C28.7317 23.5716 29.0552 24.02 29.0665 24.3047C29.1284 25.7146 29.0974 27.1244 29.0932 28.5342C29.0932 29.1066 28.8119 29.4013 28.2267 29.397C27.3363 29.397 26.4458 29.397 25.554 29.397C25.1038 29.397 24.7465 29.256 24.7226 28.7443C24.6959 28.2043 25.0504 27.9999 25.5329 27.99C26.2109 27.9717 26.8889 27.9816 27.6865 27.9816Z" fill="#395D64"></path><path d="M10.1382 27.7026C9.95528 27.4207 9.6233 27.1387 9.63456 26.8694C9.6444 26.6438 10.0298 26.3055 10.2971 26.2491C10.7191 26.1645 11.037 26.4958 10.954 26.9314C10.9006 27.2134 10.6164 27.446 10.4364 27.7012L10.1382 27.7026Z" fill="#395D64"></path><path d="M14.239 18.1086C13.7452 17.8534 13.7663 17.5095 13.7719 17.0936C13.7818 16.4366 13.7719 15.7796 13.7719 15.1198C13.7719 14.46 13.613 13.9215 12.9279 13.7466C12.3048 13.5859 11.9165 13.9919 11.6309 14.484C10.936 15.6767 10.2411 16.8708 9.57295 18.079C9.1622 18.822 9.45901 19.307 10.3087 19.3239C10.9585 19.3366 11.6098 19.3239 12.354 19.3239C12.354 19.7609 12.2724 20.1176 12.3779 20.4038C12.4707 20.659 12.7605 20.9917 12.9828 21.0072C13.205 21.0227 13.4793 20.714 13.703 20.5166C13.7691 20.4588 13.7522 20.2939 13.7522 20.1783C13.7522 19.7412 13.7213 19.362 14.2544 19.0955C14.3416 19.0454 14.4138 18.9727 14.4635 18.8851C14.5132 18.7976 14.5386 18.6982 14.537 18.5975C14.5355 18.4968 14.507 18.3983 14.4546 18.3123C14.4021 18.2263 14.3277 18.156 14.239 18.1086ZM12.3357 17.876H11.306C11.6281 17.3036 11.9249 16.7792 12.2218 16.2533L12.3357 16.3083V17.876Z" fill="#395D64"></path></svg> 