<?xml version="1.0" encoding="UTF-8"?> <svg xmlns="http://www.w3.org/2000/svg" width="18" height="29" viewBox="0 0 18 29" fill="none"><path d="M16.1725 25.6067C16.3801 25.629 16.6022 25.639 16.8198 25.678C17.1614 25.7312 17.4711 25.9098 17.6888 26.179C17.9065 26.4481 18.0167 26.7887 17.998 27.1347C17.9823 27.4712 17.8479 27.7912 17.6187 28.0377C17.3895 28.2841 17.0804 28.4409 16.7466 28.4801C16.5619 28.4957 16.3765 28.5002 16.1914 28.4935H1.8141C1.59151 28.5037 1.36845 28.4929 1.14787 28.4612C0.817564 28.397 0.521028 28.2166 0.31173 27.9525C0.102432 27.6885 -0.00585073 27.3582 0.00640145 27.0212C0.0153646 26.6939 0.138647 26.3802 0.354759 26.1348C0.570871 25.8893 0.866097 25.7276 1.18896 25.678C1.40548 25.639 1.62756 25.6279 1.76747 25.6134C1.93958 24.357 2.02064 23.1117 2.2949 21.911C2.83677 19.5406 4.07152 17.5397 5.79372 15.8292C6.08798 15.5354 6.38001 15.1827 6.51991 14.8021C6.81306 13.9986 6.49104 13.3264 5.89588 12.7555C4.11926 11.0484 2.85454 9.01856 2.30268 6.60813C2.0273 5.40736 1.94069 4.15985 1.76192 2.88786C1.64311 2.87451 1.4288 2.86004 1.20673 2.82331C0.86405 2.77613 0.551026 2.60319 0.32826 2.33799C0.105494 2.07279 -0.011174 1.73419 0.000844108 1.38773C0.0107775 1.03268 0.153122 0.694256 0.399787 0.439214C0.646451 0.184173 0.979524 0.0310394 1.33331 0.0100235C1.48099 -0.00221793 1.62978 0.00334639 1.77746 0.00334639C6.58913 0.00334639 11.4008 0.00334639 16.2125 0.00334639C16.4353 -0.00683129 16.6586 0.00622211 16.8787 0.0422963C17.198 0.110581 17.4838 0.287902 17.6872 0.543953C17.8905 0.800004 17.9988 1.11889 17.9936 1.4461C17.9883 1.77332 17.8699 2.08855 17.6584 2.33793C17.447 2.5873 17.1556 2.75533 16.8343 2.8133C16.6178 2.85447 16.3957 2.86449 16.168 2.89009C16.0948 3.75366 16.0737 4.6228 15.946 5.47302C15.5018 8.31635 14.2082 10.7257 12.1429 12.7177C11.5533 13.2864 11.1869 13.9418 11.4767 14.7509C11.6434 15.1601 11.8964 15.5283 12.2184 15.8303C14.2171 17.8268 15.5063 20.1972 15.9437 22.9993C16.0737 23.854 16.097 24.7276 16.1725 25.6067ZM15.1065 25.6012C15.1256 25.5279 15.1404 25.4536 15.1509 25.3786C15.1576 25.2862 15.1576 25.1928 15.1576 25.1004C15.1457 21.8509 14.0109 19.0591 11.7532 16.7251C11.6121 16.5782 11.4645 16.4379 11.3234 16.2911C10.1176 15.0291 10.102 13.4232 11.3468 12.1857C12.5915 10.9482 13.6053 9.59168 14.2704 7.97026C14.9335 6.36673 15.2287 4.63441 15.1343 2.90121H2.78791C2.88452 3.87385 2.9145 4.81755 3.08106 5.73454C3.53409 8.2251 4.73886 10.3161 6.55545 12.0578C7.22168 12.7066 7.62919 13.46 7.57256 14.4237C7.52259 15.2539 7.11397 15.8893 6.53657 16.4469C4.871 18.0572 3.73396 19.9735 3.18765 22.2337C2.91528 23.3329 2.81379 24.4676 2.88674 25.5978L15.1065 25.6012ZM9.00718 1.89742C11.3745 1.89742 13.7419 1.89742 16.1081 1.89742C16.4723 1.89742 16.9964 2.03875 17.013 1.45228C17.033 0.814616 16.4767 0.963738 16.1025 0.962625C11.3693 0.953722 6.6354 0.953722 1.90072 0.962625C1.71639 0.962625 1.50653 0.928127 1.3544 1.00269C1.20228 1.07725 0.989088 1.27979 1.00241 1.40554C1.02018 1.57692 1.19895 1.77167 1.36107 1.87516C1.4821 1.95084 1.68419 1.90076 1.85075 1.90076L9.00718 1.89742ZM9.00718 27.5375C11.376 27.5375 13.743 27.5375 16.1081 27.5375C16.2924 27.5375 16.5023 27.572 16.6544 27.4975C16.8065 27.4229 17.0186 27.2193 17.0053 27.0946C16.9864 26.9221 16.8076 26.7274 16.6455 26.625C16.5245 26.5493 16.3224 26.5994 16.1558 26.5994H1.84409C1.69641 26.5994 1.51763 26.5527 1.40771 26.6183C1.24004 26.7185 0.992419 26.9143 1.00908 27.0401C1.03128 27.2148 1.23892 27.4107 1.41658 27.5075C1.56204 27.5865 1.77857 27.5375 1.9629 27.5375H9.00718Z" fill="#395D64"></path><path d="M9.007 24.7009C7.52685 24.7009 6.04782 24.7009 4.56545 24.7009C3.93142 24.7009 3.78819 24.5228 3.86591 23.8863C4.13241 21.7151 6.12777 19.9334 8.30745 19.9412C9.10138 19.9412 9.90752 19.9034 10.6848 20.0235C12.3504 20.2806 14.1359 22.4262 14.1736 24.101C14.1836 24.5673 13.9138 24.7053 13.4996 24.7042C12.0017 24.6986 10.5038 24.7009 9.007 24.7009ZM13.1376 23.7082C12.9788 22.7945 12.3659 22.2682 11.8296 21.6917C11.6023 21.4343 11.3211 21.2304 11.0062 21.0944C10.6912 20.9584 10.3502 20.8937 10.0075 20.9049C9.39674 20.9161 8.78603 20.9049 8.17642 20.9049C6.80066 20.9116 5.20059 22.2159 4.89746 23.5758C4.8908 23.6058 4.91856 23.6437 4.93854 23.7015L13.1376 23.7082Z" fill="#395D64"></path><path d="M7.05057 6.27881C7.46474 6.41458 7.83561 6.45798 8.11653 6.6416C9.19916 7.35049 10.4084 7.52298 11.6553 7.5764C11.7664 7.56639 11.8783 7.57013 11.9884 7.58752C12.3216 7.69881 12.7657 7.73553 12.9489 7.97257C13.2299 8.34538 12.9301 8.75157 12.6469 9.05426C12.0362 9.69749 11.411 10.3285 10.7692 10.9394C9.99864 11.675 9.54782 12.5531 9.48231 13.6203C9.46232 13.9475 9.38237 14.2368 8.99818 14.2313C8.61399 14.2257 8.55403 13.9252 8.5296 13.6036C8.46298 12.5575 7.99439 11.7207 7.28042 10.9595C6.65681 10.2802 6.08519 9.55481 5.57042 8.7894C5.04854 8.02933 5.16735 7.38165 5.90354 6.82856C6.24442 6.57371 6.68081 6.45019 7.05057 6.27881ZM11.7142 8.62248C11.6664 8.58909 11.6398 8.55571 11.6109 8.55348C10.1674 8.44887 8.75056 8.23966 7.51026 7.39945C7.48034 7.37765 7.44631 7.36216 7.41023 7.35394C7.37416 7.34571 7.33679 7.34492 7.3004 7.3516C6.96729 7.46845 6.59753 7.54412 6.3488 7.76002C6.25109 7.84348 6.36102 8.31644 6.50981 8.51119C7.31151 9.55727 8.15539 10.5722 8.93933 11.5404L11.7142 8.62248Z" fill="#395D64"></path><path d="M9.56644 18.4554C9.36768 18.6312 9.1767 18.945 8.96906 18.9562C8.5249 18.9806 8.5249 18.5778 8.5249 18.2373C8.5249 17.8967 8.59264 17.5695 9.01347 17.5963C9.46762 17.6219 9.4654 17.9902 9.56644 18.4554Z" fill="#395D64"></path><path d="M9.45869 15.9427C9.46646 16.2877 9.40317 16.6104 8.97345 16.5926C8.54373 16.5748 8.5293 16.2343 8.5293 15.9071C8.5293 15.5799 8.54817 15.2316 8.98678 15.2305C9.45203 15.2294 9.46535 15.5922 9.45869 15.9427Z" fill="#395D64"></path></svg> 