<?xml version="1.0" encoding="UTF-8"?> <svg xmlns="http://www.w3.org/2000/svg" width="19" height="30" viewBox="0 0 19 30" fill="none"><path d="M3.82217 29.3931C3.34584 29.3931 2.92478 29.3931 2.52843 29.3848C1.08885 29.3648 0.0303358 28.3145 0.0115177 26.8859C-0.00377191 25.6659 -0.000243745 24.4223 0.00210851 23.22V23.2C0.00210851 22.6428 0.00210851 22.0845 0.00210851 21.525C0.00210851 21.0476 0.00210851 20.0716 0.00210851 20.0716C0.00210851 18.9259 0.00210851 17.74 0.00210851 16.5754C0.0150459 14.2687 1.41346 12.497 3.65751 11.9513C4.26792 11.8027 4.8995 11.6554 5.45698 11.5257C6.09092 11.3784 6.73778 11.2275 7.37289 11.0719C9.01947 10.6688 10.1168 9.3757 10.1627 7.77144C10.2027 6.39349 9.36878 5.26426 8.08798 4.96132C7.88221 4.91223 7.67144 4.88731 7.45993 4.88706C6.42729 4.88706 5.51697 5.49647 5.02534 6.51844C4.53372 7.5404 3.75983 8.10148 2.80835 8.10148C2.67337 8.1008 2.53859 8.09095 2.40493 8.07201C2.05579 8.02286 1.72176 7.89715 1.42663 7.70384C1.1315 7.51053 0.882525 7.25438 0.697443 6.95363C0.512361 6.65288 0.395723 6.31493 0.355837 5.96384C0.31595 5.61276 0.353796 5.25717 0.466679 4.92242C1.39464 2.11584 4.39612 2.12328e-06 7.44816 2.12328e-06C7.7587 -0.000251436 8.06885 0.0222051 8.37613 0.0671912C12.375 0.663634 14.9754 3.67767 14.9895 7.74433C14.9954 9.23897 14.9895 10.4743 14.9895 11.6342C14.9895 12.0892 14.7848 12.3603 14.4496 12.3603H14.432C14.0027 12.3461 13.9051 11.9583 13.8992 11.6342C13.891 11.1238 13.8933 10.6028 13.8992 10.1018C13.9235 8.95307 13.8886 7.80384 13.7945 6.65871C13.524 3.91931 11.3035 1.63138 8.51609 1.22C8.19053 1.17198 7.86191 1.14795 7.53285 1.14809C4.98183 1.14809 2.75189 2.57555 1.7122 4.87527C1.48285 5.38213 1.43816 5.82769 1.57812 6.19782C1.63793 6.35064 1.72839 6.48953 1.8439 6.60591C1.95941 6.72229 2.09752 6.81367 2.24969 6.87442C2.41755 6.95051 2.59942 6.99065 2.78365 6.99229C3.29761 6.99229 3.72455 6.65164 4.05504 5.98211C4.36663 5.32281 4.85751 4.765 5.47126 4.37279C6.08501 3.98057 6.79673 3.76987 7.52461 3.7649C8.1314 3.76536 8.72893 3.91406 9.26545 4.19812C9.80197 4.48218 10.2613 4.89303 10.6037 5.3951C11.3611 6.47482 11.527 7.85041 11.0565 9.16707C10.8121 9.8603 10.4054 10.4847 9.87044 10.9878C9.33549 11.4909 8.68794 11.8581 7.98213 12.0585C7.06828 12.3131 6.12385 12.53 5.21 12.7422L5.1653 12.7528C4.796 12.8377 4.42787 12.9225 4.05974 13.0109C2.1356 13.4695 1.11943 14.7602 1.11943 16.7428C1.11943 20.0056 1.11943 23.2668 1.11943 26.5264C1.11943 27.7464 1.6134 28.2473 2.82246 28.2532H3.36936H4.54549C4.85363 28.2532 5.16178 28.2532 5.46992 28.2532C5.96507 28.2591 6.21558 28.4477 6.21558 28.812C6.21558 29.2728 5.81335 29.3707 5.4758 29.373H5.37701C4.85128 29.3895 4.33731 29.3931 3.82217 29.3931Z" fill="#395D64"></path><path d="M12.8804 29.3873C11.2587 29.3864 9.70372 28.7399 8.55749 27.5902C7.41126 26.4404 6.7676 24.8814 6.76807 23.2561C6.76853 21.6308 7.41309 20.0722 8.55998 18.9231C9.70688 17.7739 11.2622 17.1284 12.8839 17.1284C14.5056 17.1284 16.061 17.7739 17.2079 18.9231C18.3548 20.0722 18.9993 21.6308 18.9998 23.2561C19.0002 24.8814 18.3566 26.4404 17.2104 27.5902C16.0641 28.7399 14.5092 29.3864 12.8875 29.3873H12.8804ZM12.8804 18.1893C10.1612 18.1893 7.90656 20.4195 7.85481 23.1612C7.80306 25.903 10.0201 28.1956 12.7945 28.2534H12.8969C15.602 28.2534 17.8366 26.0409 17.9001 23.3215C17.917 21.9904 17.4107 20.7061 16.4906 19.746C15.5705 18.786 14.3105 18.2272 12.9827 18.1905L12.8804 18.1893Z" fill="#395D64"></path><path d="M14.4516 15.2633C14.3435 15.264 14.2377 15.2325 14.1475 15.1728C14.0572 15.1132 13.9868 15.028 13.9449 14.9281C13.9031 14.8282 13.8917 14.7182 13.9124 14.6118C13.9331 14.5055 13.9848 14.4077 14.0609 14.3309C14.1371 14.254 14.2343 14.2016 14.3403 14.1802C14.4463 14.1588 14.5562 14.1694 14.6561 14.2107C14.756 14.252 14.8414 14.3221 14.9016 14.4121C14.9617 14.5022 14.9938 14.608 14.9938 14.7164C14.9955 14.7893 14.9828 14.8619 14.9563 14.9299C14.9299 14.9978 14.8903 15.0599 14.8397 15.1124C14.789 15.1619 14.729 15.2007 14.6632 15.2266C14.5973 15.2525 14.527 15.265 14.4563 15.2633H14.4516Z" fill="#395D64"></path><path d="M11.36 25.2793C11.2234 25.276 11.0937 25.2188 10.9989 25.1201C10.7637 24.8844 10.7813 24.5602 11.0436 24.2832C11.1801 24.1382 11.3353 24.0027 11.5494 23.8117C11.674 23.7021 11.8116 23.576 11.9739 23.4345C12.0216 23.3915 12.0586 23.338 12.0819 23.2781C12.1053 23.2182 12.1144 23.1537 12.1084 23.0897C12.1025 23.0257 12.0817 22.964 12.0477 22.9094C12.0138 22.8549 11.9676 22.8091 11.9128 22.7756C11.7952 22.7073 11.6964 22.6495 11.6035 22.5988C11.4643 22.5312 11.3336 22.4473 11.2142 22.3489C10.9789 22.1132 10.8378 21.8869 10.8343 21.6971C10.8449 21.567 10.8995 21.4444 10.9891 21.3496C11.0788 21.2549 11.198 21.1936 11.3271 21.1761C11.5129 21.1761 11.7599 21.3211 12.0233 21.5851C12.1257 21.6888 12.2303 21.8091 12.3303 21.9258L12.3527 21.9517C12.3997 22.0071 12.4491 22.0625 12.4997 22.1202C12.5655 22.195 12.6561 22.2433 12.7548 22.2561C12.8534 22.2688 12.9534 22.2453 13.036 22.1898C13.2594 22.0289 13.4662 21.846 13.6535 21.644C13.8993 21.3965 14.151 21.1431 14.3391 21.1431C14.4415 21.1431 14.5744 21.2173 14.719 21.3647C14.8637 21.512 14.9542 21.6476 14.9542 21.7525C14.9542 21.947 14.6896 22.2169 14.4309 22.4786C14.2302 22.6708 14.0457 22.8794 13.8793 23.1021C13.8193 23.1877 13.7937 23.2927 13.8077 23.3963C13.8216 23.4999 13.8741 23.5944 13.9545 23.6609C14.0345 23.7257 14.118 23.7893 14.2027 23.8542C14.3779 23.9821 14.5437 24.1223 14.699 24.2738C14.9731 24.5579 14.9942 24.8714 14.7531 25.1119C14.7057 25.1626 14.6485 25.2031 14.5851 25.2311C14.5216 25.259 14.4531 25.2738 14.3838 25.2746C14.2051 25.2664 14.0364 25.189 13.9134 25.0588C13.7564 24.9025 13.6076 24.738 13.4676 24.5661L13.4559 24.552C13.37 24.4518 13.2783 24.3434 13.1724 24.2243C13.1338 24.18 13.0861 24.1445 13.0327 24.1202C12.9792 24.0959 12.9212 24.0833 12.8625 24.0833C12.8038 24.0833 12.7458 24.0959 12.6923 24.1202C12.6389 24.1445 12.5912 24.18 12.5526 24.2243C12.4597 24.3316 12.375 24.4341 12.2938 24.5319C12.151 24.7113 11.9986 24.8828 11.8375 25.0459C11.7154 25.1839 11.5437 25.2678 11.36 25.2793V25.2793Z" fill="#395D64"></path></svg> 