<?xml version="1.0" encoding="UTF-8"?> <svg xmlns="http://www.w3.org/2000/svg" width="27" height="28" viewBox="0 0 27 28" fill="none"><path d="M13.5258 5.89232C16.3532 5.89232 19.1805 5.90394 22.0079 5.88281C22.6876 5.88281 23.1734 6.11622 23.5717 6.6633C24.5444 7.99932 25.5487 9.31211 26.535 10.6376C27.181 11.5047 27.1568 12.2017 26.4444 13.0107C22.5102 17.4853 18.5718 21.9587 14.6292 26.4311C13.9305 27.2243 13.0716 27.2243 12.3719 26.4311C8.4307 21.9594 4.49229 17.486 0.556694 13.0107C-0.15673 12.1996 -0.180968 11.5057 0.463958 10.6386C1.46086 9.29944 2.4725 7.96975 3.46097 6.62528C3.62267 6.38529 3.84342 6.19115 4.10186 6.06164C4.3603 5.93213 4.6477 5.87163 4.93629 5.88598C7.80053 5.90077 10.6637 5.89232 13.5258 5.89232ZM13.392 26.1703H13.6091C15.0602 21.5465 16.5102 16.9216 17.9739 12.2566H9.02821C10.4898 16.9237 11.9409 21.5475 13.392 26.1713V26.1703ZM11.9789 24.7054C11.9846 24.6404 11.9846 24.575 11.9789 24.51C10.7297 20.5248 9.4831 16.539 8.23891 12.5524C8.13353 12.2228 7.94384 12.2281 7.68882 12.2281C5.6181 12.2281 3.54738 12.2281 1.47772 12.2281C1.35337 12.2281 1.22902 12.2545 1.04039 12.2757L11.9789 24.7054ZM26.0029 12.2313H25.4591C23.4231 12.2313 21.3872 12.2429 19.3523 12.2207C18.9582 12.2154 18.817 12.3538 18.7074 12.7129C17.995 15.0459 17.2595 17.3715 16.5302 19.6993C16.0167 21.337 15.5021 22.974 14.9864 24.6104L15.0633 24.6558L26.0029 12.2313ZM17.7832 11.3568C16.8474 9.82962 15.957 8.36369 15.0433 6.9115C14.9759 6.80588 14.7504 6.74991 14.5965 6.74674C13.8778 6.72984 13.1581 6.7573 12.4404 6.72984C12.1243 6.71822 11.9683 6.8439 11.8229 7.09632C11.5183 7.62439 11.1906 8.14613 10.866 8.66997L9.21789 11.3568H17.7832ZM7.56132 11.3568L4.2313 7.01711L0.985592 11.3568H7.56132ZM22.7698 7.01711L19.4608 11.3378H26.0081L22.7698 7.01711ZM8.40541 11.0621L11.0304 6.77631H5.1165C6.22931 8.22745 7.2926 9.61417 8.40436 11.0621H8.40541ZM21.8846 6.78265H15.9685C16.8611 8.23273 17.7157 9.62367 18.6031 11.06L21.8846 6.78265Z" fill="#395D64"></path><path d="M13.9222 1.87703C13.9222 2.33329 13.9222 2.78954 13.9222 3.24474C13.9222 3.54996 13.7968 3.81294 13.4817 3.74957C13.3194 3.71683 13.1034 3.43273 13.096 3.24896C13.057 2.33857 13.0791 1.42606 13.0781 0.514604C13.0781 0.209378 13.2035 -0.0546575 13.5186 0.00976734C13.6798 0.0425078 13.88 0.326611 13.9042 0.511436C13.9601 0.960297 13.9222 1.42078 13.9222 1.87703Z" fill="#395D64"></path><path d="M10.5713 4.27987C10.4849 4.37281 10.4006 4.53335 10.2773 4.57348C10.154 4.61362 9.93057 4.5851 9.85575 4.49744C9.24981 3.77504 8.65757 3.03996 8.09484 2.27953C8.02318 2.18342 8.08746 1.87714 8.19179 1.78842C8.29612 1.69971 8.61332 1.69231 8.68814 1.77892C9.31199 2.50766 9.90212 3.26492 10.4975 4.01795C10.5354 4.10093 10.5603 4.18928 10.5713 4.27987V4.27987Z" fill="#395D64"></path><path d="M16.9316 4.62294C16.5301 4.60393 16.3331 4.2459 16.5407 3.96919C17.0858 3.24256 17.6535 2.53389 18.2436 1.84317C18.3363 1.73755 18.7041 1.69531 18.7705 1.77241C18.8759 1.90337 18.9497 2.22444 18.8653 2.34061C18.3384 3.0609 17.7757 3.74951 17.2119 4.43917C17.1301 4.51661 17.0352 4.57884 16.9316 4.62294Z" fill="#395D64"></path></svg> 